<?xml version="1.0" encoding="UTF-8" standalone="no"?>
<!DOCTYPE svg PUBLIC "-//W3C//DTD SVG 1.1//EN"
 "http://www.w3.org/Graphics/SVG/1.1/DTD/svg11.dtd">
<!-- Generated by graphviz version 2.47.0 (20210316.0004)
 -->
<!-- Title: dbml Pages: 1 -->
<svg width="1379pt" height="2143pt"
 viewBox="0.00 0.00 1379.02 2143.49" xmlns="http://www.w3.org/2000/svg" xmlns:xlink="http://www.w3.org/1999/xlink">
<g id="graph0" class="graph" transform="scale(1 1) rotate(0) translate(4 2139.49)">
<title>dbml</title>
<!-- work_experiences_type -->
<g id="work_experiences_type" class="node">
<title>work_experiences_type</title>
<ellipse fill="none" stroke="black" stroke-width="0" cx="1027.36" cy="-172.53" rx="343.81" ry="172.57"/>
<polygon fill="#29235c" stroke="transparent" points="786.36,-232.53 786.36,-292.53 1268.36,-292.53 1268.36,-232.53 786.36,-232.53"/>
<polygon fill="none" stroke="#29235c" points="786.36,-232.53 786.36,-292.53 1268.36,-292.53 1268.36,-232.53 786.36,-232.53"/>
<text text-anchor="start" x="797.08" y="-253.73" font-family="Helvetica,sans-Serif" font-weight="bold" font-size="32.00" fill="#ffffff"> &#160;&#160;&#160;&#160;&#160;&#160;work_experiences_type &#160;&#160;&#160;&#160;&#160;&#160;</text>
<polygon fill="#e7e2dd" stroke="transparent" points="786.36,-172.53 786.36,-232.53 1268.36,-232.53 1268.36,-172.53 786.36,-172.53"/>
<polygon fill="none" stroke="#29235c" points="786.36,-172.53 786.36,-232.53 1268.36,-232.53 1268.36,-172.53 786.36,-172.53"/>
<text text-anchor="start" x="942.01" y="-193.73" font-family="Helvetica,sans-Serif" font-style="italic" font-size="32.00" fill="#1d71b8"> &#160;&#160;&#160;remote &#160;&#160;&#160;</text>
<polygon fill="#e7e2dd" stroke="transparent" points="786.36,-112.53 786.36,-172.53 1268.36,-172.53 1268.36,-112.53 786.36,-112.53"/>
<polygon fill="none" stroke="#29235c" points="786.36,-112.53 786.36,-172.53 1268.36,-172.53 1268.36,-112.53 786.36,-112.53"/>
<text text-anchor="start" x="948.23" y="-133.73" font-family="Helvetica,sans-Serif" font-style="italic" font-size="32.00" fill="#1d71b8"> &#160;&#160;&#160;hybrid &#160;&#160;&#160;</text>
<polygon fill="#e7e2dd" stroke="transparent" points="786.36,-52.53 786.36,-112.53 1268.36,-112.53 1268.36,-52.53 786.36,-52.53"/>
<polygon fill="none" stroke="#29235c" points="786.36,-52.53 786.36,-112.53 1268.36,-112.53 1268.36,-52.53 786.36,-52.53"/>
<text text-anchor="start" x="935.79" y="-73.73" font-family="Helvetica,sans-Serif" font-style="italic" font-size="32.00" fill="#1d71b8"> &#160;&#160;&#160;in&#45;office &#160;&#160;&#160;</text>
<polygon fill="none" stroke="#29235c" stroke-width="2" points="785.36,-51.53 785.36,-293.53 1269.36,-293.53 1269.36,-51.53 785.36,-51.53"/>
</g>
<!-- projects_status -->
<g id="projects_status" class="node">
<title>projects_status</title>
<ellipse fill="none" stroke="black" stroke-width="0" cx="1027.36" cy="-1131.53" rx="258.19" ry="130.22"/>
<polygon fill="#29235c" stroke="transparent" points="847.36,-1161.53 847.36,-1221.53 1208.36,-1221.53 1208.36,-1161.53 847.36,-1161.53"/>
<polygon fill="none" stroke="#29235c" points="847.36,-1161.53 847.36,-1221.53 1208.36,-1221.53 1208.36,-1161.53 847.36,-1161.53"/>
<text text-anchor="start" x="858.03" y="-1182.73" font-family="Helvetica,sans-Serif" font-weight="bold" font-size="32.00" fill="#ffffff"> &#160;&#160;&#160;&#160;&#160;&#160;projects_status &#160;&#160;&#160;&#160;&#160;&#160;</text>
<polygon fill="#e7e2dd" stroke="transparent" points="847.36,-1101.53 847.36,-1161.53 1208.36,-1161.53 1208.36,-1101.53 847.36,-1101.53"/>
<polygon fill="none" stroke="#29235c" points="847.36,-1101.53 847.36,-1161.53 1208.36,-1161.53 1208.36,-1101.53 847.36,-1101.53"/>
<text text-anchor="start" x="908.72" y="-1122.73" font-family="Helvetica,sans-Serif" font-style="italic" font-size="32.00" fill="#1d71b8"> &#160;&#160;&#160;in_progress &#160;&#160;&#160;</text>
<polygon fill="#e7e2dd" stroke="transparent" points="847.36,-1041.53 847.36,-1101.53 1208.36,-1101.53 1208.36,-1041.53 847.36,-1041.53"/>
<polygon fill="none" stroke="#29235c" points="847.36,-1041.53 847.36,-1101.53 1208.36,-1101.53 1208.36,-1041.53 847.36,-1041.53"/>
<text text-anchor="start" x="918.5" y="-1062.73" font-family="Helvetica,sans-Serif" font-style="italic" font-size="32.00" fill="#1d71b8"> &#160;&#160;&#160;completed &#160;&#160;&#160;</text>
<polygon fill="none" stroke="#29235c" stroke-width="2" points="845.86,-1040.53 845.86,-1222.53 1208.86,-1222.53 1208.86,-1040.53 845.86,-1040.53"/>
</g>
<!-- users -->
<g id="users" class="node">
<title>users</title>
<ellipse fill="none" stroke="black" stroke-width="0" cx="323.85" cy="-1920.53" rx="253.7" ry="214.92"/>
<polygon fill="#1d71b8" stroke="transparent" points="146.85,-2010.53 146.85,-2070.53 501.85,-2070.53 501.85,-2010.53 146.85,-2010.53"/>
<polygon fill="none" stroke="#29235c" points="146.85,-2010.53 146.85,-2070.53 501.85,-2070.53 501.85,-2010.53 146.85,-2010.53"/>
<text text-anchor="start" x="222.99" y="-2031.73" font-family="Helvetica,sans-Serif" font-weight="bold" font-size="32.00" fill="#ffffff"> &#160;&#160;&#160;&#160;&#160;&#160;users &#160;&#160;&#160;&#160;&#160;&#160;</text>
<polygon fill="#e7e2dd" stroke="transparent" points="146.85,-1950.53 146.85,-2010.53 501.85,-2010.53 501.85,-1950.53 146.85,-1950.53"/>
<polygon fill="none" stroke="#29235c" points="146.85,-1950.53 146.85,-2010.53 501.85,-2010.53 501.85,-1950.53 146.85,-1950.53"/>
<text text-anchor="start" x="157.85" y="-1971.73" font-family="Helvetica,sans-Serif" font-weight="bold" font-size="32.00" fill="#29235c">id</text>
<text text-anchor="start" x="182.74" y="-1971.73" font-family="Helvetica,sans-Serif" font-size="32.00" fill="#29235c"> &#160;&#160;&#160;</text>
<text text-anchor="start" x="400.19" y="-1971.73" font-family="Helvetica,sans-Serif" font-style="italic" font-size="32.00" fill="#29235c">text</text>
<text text-anchor="start" x="451.76" y="-1971.73" font-family="Helvetica,sans-Serif" font-size="32.00" fill="#29235c"> </text>
<text text-anchor="start" x="460.66" y="-1971.73" font-family="Helvetica,sans-Serif" font-weight="bold" font-size="32.00" fill="#29235c">(!)</text>
<polygon fill="#e7e2dd" stroke="transparent" points="146.85,-1890.53 146.85,-1950.53 501.85,-1950.53 501.85,-1890.53 146.85,-1890.53"/>
<polygon fill="none" stroke="#29235c" points="146.85,-1890.53 146.85,-1950.53 501.85,-1950.53 501.85,-1890.53 146.85,-1890.53"/>
<text text-anchor="start" x="157.85" y="-1910.73" font-family="Helvetica,sans-Serif" font-size="32.00" fill="#29235c">name &#160;&#160;&#160;</text>
<text text-anchor="start" x="439.28" y="-1911.73" font-family="Helvetica,sans-Serif" font-style="italic" font-size="32.00" fill="#29235c">text</text>
<polygon fill="#e7e2dd" stroke="transparent" points="146.85,-1830.53 146.85,-1890.53 501.85,-1890.53 501.85,-1830.53 146.85,-1830.53"/>
<polygon fill="none" stroke="#29235c" points="146.85,-1830.53 146.85,-1890.53 501.85,-1890.53 501.85,-1830.53 146.85,-1830.53"/>
<text text-anchor="start" x="157.85" y="-1850.73" font-family="Helvetica,sans-Serif" font-size="32.00" fill="#29235c">avatar &#160;&#160;&#160;</text>
<text text-anchor="start" x="439.28" y="-1851.73" font-family="Helvetica,sans-Serif" font-style="italic" font-size="32.00" fill="#29235c">text</text>
<polygon fill="#e7e2dd" stroke="transparent" points="146.85,-1770.53 146.85,-1830.53 501.85,-1830.53 501.85,-1770.53 146.85,-1770.53"/>
<polygon fill="none" stroke="#29235c" points="146.85,-1770.53 146.85,-1830.53 501.85,-1830.53 501.85,-1770.53 146.85,-1770.53"/>
<text text-anchor="start" x="157.48" y="-1790.73" font-family="Helvetica,sans-Serif" font-size="32.00" fill="#29235c">created_at &#160;&#160;&#160;</text>
<text text-anchor="start" x="343.58" y="-1791.73" font-family="Helvetica,sans-Serif" font-style="italic" font-size="32.00" fill="#29235c">timestamp</text>
<polygon fill="none" stroke="#29235c" stroke-width="2" points="145.35,-1769.53 145.35,-2071.53 502.35,-2071.53 502.35,-1769.53 145.35,-1769.53"/>
</g>
<!-- work_experiences -->
<g id="work_experiences" class="node">
<title>work_experiences</title>
<ellipse fill="none" stroke="black" stroke-width="0" cx="323.85" cy="-472.53" rx="323.71" ry="427.19"/>
<polygon fill="#1d71b8" stroke="transparent" points="96.85,-712.53 96.85,-772.53 550.85,-772.53 550.85,-712.53 96.85,-712.53"/>
<polygon fill="none" stroke="#29235c" points="96.85,-712.53 96.85,-772.53 550.85,-772.53 550.85,-712.53 96.85,-712.53"/>
<text text-anchor="start" x="132.7" y="-733.73" font-family="Helvetica,sans-Serif" font-weight="bold" font-size="32.00" fill="#ffffff"> &#160;&#160;&#160;&#160;&#160;&#160;work_experiences &#160;&#160;&#160;&#160;&#160;&#160;</text>
<polygon fill="#e7e2dd" stroke="transparent" points="96.85,-652.53 96.85,-712.53 550.85,-712.53 550.85,-652.53 96.85,-652.53"/>
<polygon fill="none" stroke="#29235c" points="96.85,-652.53 96.85,-712.53 550.85,-712.53 550.85,-652.53 96.85,-652.53"/>
<text text-anchor="start" x="107.85" y="-673.73" font-family="Helvetica,sans-Serif" font-weight="bold" font-size="32.00" fill="#29235c">id</text>
<text text-anchor="start" x="132.74" y="-673.73" font-family="Helvetica,sans-Serif" font-size="32.00" fill="#29235c"> &#160;&#160;&#160;</text>
<text text-anchor="start" x="449.19" y="-673.73" font-family="Helvetica,sans-Serif" font-style="italic" font-size="32.00" fill="#29235c">text</text>
<text text-anchor="start" x="500.76" y="-673.73" font-family="Helvetica,sans-Serif" font-size="32.00" fill="#29235c"> </text>
<text text-anchor="start" x="509.66" y="-673.73" font-family="Helvetica,sans-Serif" font-weight="bold" font-size="32.00" fill="#29235c">(!)</text>
<polygon fill="#e7e2dd" stroke="transparent" points="96.85,-592.53 96.85,-652.53 550.85,-652.53 550.85,-592.53 96.85,-592.53"/>
<polygon fill="none" stroke="#29235c" points="96.85,-592.53 96.85,-652.53 550.85,-652.53 550.85,-592.53 96.85,-592.53"/>
<text text-anchor="start" x="107.85" y="-612.73" font-family="Helvetica,sans-Serif" font-size="32.00" fill="#29235c">company_name &#160;&#160;&#160;</text>
<text text-anchor="start" x="488.28" y="-613.73" font-family="Helvetica,sans-Serif" font-style="italic" font-size="32.00" fill="#29235c">text</text>
<polygon fill="#e7e2dd" stroke="transparent" points="96.85,-532.53 96.85,-592.53 550.85,-592.53 550.85,-532.53 96.85,-532.53"/>
<polygon fill="none" stroke="#29235c" points="96.85,-532.53 96.85,-592.53 550.85,-592.53 550.85,-532.53 96.85,-532.53"/>
<text text-anchor="start" x="107.85" y="-552.73" font-family="Helvetica,sans-Serif" font-size="32.00" fill="#29235c">location &#160;&#160;&#160;</text>
<text text-anchor="start" x="488.28" y="-553.73" font-family="Helvetica,sans-Serif" font-style="italic" font-size="32.00" fill="#29235c">text</text>
<polygon fill="#e7e2dd" stroke="transparent" points="96.85,-472.53 96.85,-532.53 550.85,-532.53 550.85,-472.53 96.85,-472.53"/>
<polygon fill="none" stroke="#29235c" points="96.85,-472.53 96.85,-532.53 550.85,-532.53 550.85,-472.53 96.85,-472.53"/>
<text text-anchor="start" x="107.85" y="-492.73" font-family="Helvetica,sans-Serif" font-size="32.00" fill="#29235c">role &#160;&#160;&#160;</text>
<text text-anchor="start" x="488.28" y="-493.73" font-family="Helvetica,sans-Serif" font-style="italic" font-size="32.00" fill="#29235c">text</text>
<polygon fill="#e7e2dd" stroke="transparent" points="96.85,-412.53 96.85,-472.53 550.85,-472.53 550.85,-412.53 96.85,-412.53"/>
<polygon fill="none" stroke="#29235c" points="96.85,-412.53 96.85,-472.53 550.85,-472.53 550.85,-412.53 96.85,-412.53"/>
<text text-anchor="start" x="107.85" y="-432.73" font-family="Helvetica,sans-Serif" font-size="32.00" fill="#29235c">description &#160;&#160;&#160;</text>
<text text-anchor="start" x="488.28" y="-433.73" font-family="Helvetica,sans-Serif" font-style="italic" font-size="32.00" fill="#29235c">text</text>
<polygon fill="#e7e2dd" stroke="transparent" points="96.85,-352.53 96.85,-412.53 550.85,-412.53 550.85,-352.53 96.85,-352.53"/>
<polygon fill="none" stroke="#29235c" points="96.85,-352.53 96.85,-412.53 550.85,-412.53 550.85,-352.53 96.85,-352.53"/>
<text text-anchor="start" x="107.85" y="-372.73" font-family="Helvetica,sans-Serif" font-size="32.00" fill="#29235c">started_at &#160;&#160;&#160;</text>
<text text-anchor="start" x="353.21" y="-373.73" font-family="Helvetica,sans-Serif" font-style="italic" font-size="32.00" fill="#29235c">timestamp</text>
<text text-anchor="start" x="500.76" y="-373.73" font-family="Helvetica,sans-Serif" font-size="32.00" fill="#29235c"> </text>
<text text-anchor="start" x="509.66" y="-373.73" font-family="Helvetica,sans-Serif" font-weight="bold" font-size="32.00" fill="#29235c">(!)</text>
<polygon fill="#e7e2dd" stroke="transparent" points="96.85,-292.53 96.85,-352.53 550.85,-352.53 550.85,-292.53 96.85,-292.53"/>
<polygon fill="none" stroke="#29235c" points="96.85,-292.53 96.85,-352.53 550.85,-352.53 550.85,-292.53 96.85,-292.53"/>
<text text-anchor="start" x="107.85" y="-312.73" font-family="Helvetica,sans-Serif" font-size="32.00" fill="#29235c">ended_at &#160;&#160;&#160;</text>
<text text-anchor="start" x="392.3" y="-313.73" font-family="Helvetica,sans-Serif" font-style="italic" font-size="32.00" fill="#29235c">timestamp</text>
<polygon fill="#e7e2dd" stroke="transparent" points="96.85,-232.53 96.85,-292.53 550.85,-292.53 550.85,-232.53 96.85,-232.53"/>
<polygon fill="none" stroke="#29235c" points="96.85,-232.53 96.85,-292.53 550.85,-292.53 550.85,-232.53 96.85,-232.53"/>
<text text-anchor="start" x="107.83" y="-252.73" font-family="Helvetica,sans-Serif" font-size="32.00" fill="#29235c">type &#160;&#160;&#160;</text>
<text text-anchor="start" x="203.82" y="-253.73" font-family="Helvetica,sans-Serif" font-style="italic" font-size="32.00" fill="#29235c">work_experiences_type</text>
<polygon fill="#e7e2dd" stroke="transparent" points="96.85,-172.53 96.85,-232.53 550.85,-232.53 550.85,-172.53 96.85,-172.53"/>
<polygon fill="none" stroke="#29235c" points="96.85,-172.53 96.85,-232.53 550.85,-232.53 550.85,-172.53 96.85,-172.53"/>
<text text-anchor="start" x="107.85" y="-192.73" font-family="Helvetica,sans-Serif" font-size="32.00" fill="#29235c">created_at &#160;&#160;&#160;</text>
<text text-anchor="start" x="392.3" y="-193.73" font-family="Helvetica,sans-Serif" font-style="italic" font-size="32.00" fill="#29235c">timestamp</text>
<polygon fill="none" stroke="#29235c" stroke-width="2" points="95.85,-171.53 95.85,-773.53 551.85,-773.53 551.85,-171.53 95.85,-171.53"/>
</g>
<!-- work_experiences&#45;&gt;work_experiences_type -->
<g id="edge3" class="edge">
<title>work_experiences:e&#45;&gt;work_experiences_type:w</title>
<path fill="none" stroke="#29235c" stroke-width="3" d="M551.85,-262.53C655.64,-262.53 681.58,-262.53 785.36,-262.53"/>
</g>
<!-- skills -->
<g id="skills" class="node">
<title>skills</title>
<ellipse fill="none" stroke="black" stroke-width="0" cx="1027.36" cy="-1452.53" rx="253.7" ry="172.57"/>
<polygon fill="#1d71b8" stroke="transparent" points="850.36,-1512.53 850.36,-1572.53 1205.36,-1572.53 1205.36,-1512.53 850.36,-1512.53"/>
<polygon fill="none" stroke="#29235c" points="850.36,-1512.53 850.36,-1572.53 1205.36,-1572.53 1205.36,-1512.53 850.36,-1512.53"/>
<text text-anchor="start" x="930.96" y="-1533.73" font-family="Helvetica,sans-Serif" font-weight="bold" font-size="32.00" fill="#ffffff"> &#160;&#160;&#160;&#160;&#160;&#160;skills &#160;&#160;&#160;&#160;&#160;&#160;</text>
<polygon fill="#e7e2dd" stroke="transparent" points="850.36,-1452.53 850.36,-1512.53 1205.36,-1512.53 1205.36,-1452.53 850.36,-1452.53"/>
<polygon fill="none" stroke="#29235c" points="850.36,-1452.53 850.36,-1512.53 1205.36,-1512.53 1205.36,-1452.53 850.36,-1452.53"/>
<text text-anchor="start" x="861.36" y="-1473.73" font-family="Helvetica,sans-Serif" font-weight="bold" font-size="32.00" fill="#29235c">id</text>
<text text-anchor="start" x="886.25" y="-1473.73" font-family="Helvetica,sans-Serif" font-size="32.00" fill="#29235c"> &#160;&#160;&#160;</text>
<text text-anchor="start" x="1103.7" y="-1473.73" font-family="Helvetica,sans-Serif" font-style="italic" font-size="32.00" fill="#29235c">text</text>
<text text-anchor="start" x="1155.27" y="-1473.73" font-family="Helvetica,sans-Serif" font-size="32.00" fill="#29235c"> </text>
<text text-anchor="start" x="1164.17" y="-1473.73" font-family="Helvetica,sans-Serif" font-weight="bold" font-size="32.00" fill="#29235c">(!)</text>
<polygon fill="#e7e2dd" stroke="transparent" points="850.36,-1392.53 850.36,-1452.53 1205.36,-1452.53 1205.36,-1392.53 850.36,-1392.53"/>
<polygon fill="none" stroke="#29235c" points="850.36,-1392.53 850.36,-1452.53 1205.36,-1452.53 1205.36,-1392.53 850.36,-1392.53"/>
<text text-anchor="start" x="861.36" y="-1412.73" font-family="Helvetica,sans-Serif" font-size="32.00" fill="#29235c">name &#160;&#160;&#160;</text>
<text text-anchor="start" x="1103.7" y="-1413.73" font-family="Helvetica,sans-Serif" font-style="italic" font-size="32.00" fill="#29235c">text</text>
<text text-anchor="start" x="1155.27" y="-1413.73" font-family="Helvetica,sans-Serif" font-size="32.00" fill="#29235c"> </text>
<text text-anchor="start" x="1164.17" y="-1413.73" font-family="Helvetica,sans-Serif" font-weight="bold" font-size="32.00" fill="#29235c">(!)</text>
<polygon fill="#e7e2dd" stroke="transparent" points="850.36,-1332.53 850.36,-1392.53 1205.36,-1392.53 1205.36,-1332.53 850.36,-1332.53"/>
<polygon fill="none" stroke="#29235c" points="850.36,-1332.53 850.36,-1392.53 1205.36,-1392.53 1205.36,-1332.53 850.36,-1332.53"/>
<text text-anchor="start" x="860.99" y="-1352.73" font-family="Helvetica,sans-Serif" font-size="32.00" fill="#29235c">created_at &#160;&#160;&#160;</text>
<text text-anchor="start" x="1047.08" y="-1353.73" font-family="Helvetica,sans-Serif" font-style="italic" font-size="32.00" fill="#29235c">timestamp</text>
<polygon fill="none" stroke="#29235c" stroke-width="2" points="848.86,-1331.53 848.86,-1573.53 1205.86,-1573.53 1205.86,-1331.53 848.86,-1331.53"/>
</g>
<!-- projects -->
<g id="projects" class="node">
<title>projects</title>
<ellipse fill="none" stroke="black" stroke-width="0" cx="323.85" cy="-1302.53" rx="282.69" ry="384.83"/>
<polygon fill="#1d71b8" stroke="transparent" points="125.85,-1512.53 125.85,-1572.53 521.85,-1572.53 521.85,-1512.53 125.85,-1512.53"/>
<polygon fill="none" stroke="#29235c" points="125.85,-1512.53 125.85,-1572.53 521.85,-1572.53 521.85,-1512.53 125.85,-1512.53"/>
<text text-anchor="start" x="205.6" y="-1533.73" font-family="Helvetica,sans-Serif" font-weight="bold" font-size="32.00" fill="#ffffff"> &#160;&#160;&#160;&#160;&#160;&#160;projects &#160;&#160;&#160;&#160;&#160;&#160;</text>
<polygon fill="#e7e2dd" stroke="transparent" points="125.85,-1452.53 125.85,-1512.53 521.85,-1512.53 521.85,-1452.53 125.85,-1452.53"/>
<polygon fill="none" stroke="#29235c" points="125.85,-1452.53 125.85,-1512.53 521.85,-1512.53 521.85,-1452.53 125.85,-1452.53"/>
<text text-anchor="start" x="136.85" y="-1473.73" font-family="Helvetica,sans-Serif" font-weight="bold" font-size="32.00" fill="#29235c">id</text>
<text text-anchor="start" x="161.74" y="-1473.73" font-family="Helvetica,sans-Serif" font-size="32.00" fill="#29235c"> &#160;&#160;&#160;</text>
<text text-anchor="start" x="420.19" y="-1473.73" font-family="Helvetica,sans-Serif" font-style="italic" font-size="32.00" fill="#29235c">text</text>
<text text-anchor="start" x="471.76" y="-1473.73" font-family="Helvetica,sans-Serif" font-size="32.00" fill="#29235c"> </text>
<text text-anchor="start" x="480.66" y="-1473.73" font-family="Helvetica,sans-Serif" font-weight="bold" font-size="32.00" fill="#29235c">(!)</text>
<polygon fill="#e7e2dd" stroke="transparent" points="125.85,-1392.53 125.85,-1452.53 521.85,-1452.53 521.85,-1392.53 125.85,-1392.53"/>
<polygon fill="none" stroke="#29235c" points="125.85,-1392.53 125.85,-1452.53 521.85,-1452.53 521.85,-1392.53 125.85,-1392.53"/>
<text text-anchor="start" x="136.85" y="-1412.73" font-family="Helvetica,sans-Serif" font-size="32.00" fill="#29235c">image &#160;&#160;&#160;</text>
<text text-anchor="start" x="459.28" y="-1413.73" font-family="Helvetica,sans-Serif" font-style="italic" font-size="32.00" fill="#29235c">text</text>
<polygon fill="#e7e2dd" stroke="transparent" points="125.85,-1332.53 125.85,-1392.53 521.85,-1392.53 521.85,-1332.53 125.85,-1332.53"/>
<polygon fill="none" stroke="#29235c" points="125.85,-1332.53 125.85,-1392.53 521.85,-1392.53 521.85,-1332.53 125.85,-1332.53"/>
<text text-anchor="start" x="136.85" y="-1352.73" font-family="Helvetica,sans-Serif" font-size="32.00" fill="#29235c">title &#160;&#160;&#160;</text>
<text text-anchor="start" x="420.19" y="-1353.73" font-family="Helvetica,sans-Serif" font-style="italic" font-size="32.00" fill="#29235c">text</text>
<text text-anchor="start" x="471.76" y="-1353.73" font-family="Helvetica,sans-Serif" font-size="32.00" fill="#29235c"> </text>
<text text-anchor="start" x="480.66" y="-1353.73" font-family="Helvetica,sans-Serif" font-weight="bold" font-size="32.00" fill="#29235c">(!)</text>
<polygon fill="#e7e2dd" stroke="transparent" points="125.85,-1272.53 125.85,-1332.53 521.85,-1332.53 521.85,-1272.53 125.85,-1272.53"/>
<polygon fill="none" stroke="#29235c" points="125.85,-1272.53 125.85,-1332.53 521.85,-1332.53 521.85,-1272.53 125.85,-1272.53"/>
<text text-anchor="start" x="136.85" y="-1292.73" font-family="Helvetica,sans-Serif" font-size="32.00" fill="#29235c">description &#160;&#160;&#160;</text>
<text text-anchor="start" x="420.19" y="-1293.73" font-family="Helvetica,sans-Serif" font-style="italic" font-size="32.00" fill="#29235c">text</text>
<text text-anchor="start" x="471.76" y="-1293.73" font-family="Helvetica,sans-Serif" font-size="32.00" fill="#29235c"> </text>
<text text-anchor="start" x="480.66" y="-1293.73" font-family="Helvetica,sans-Serif" font-weight="bold" font-size="32.00" fill="#29235c">(!)</text>
<polygon fill="#e7e2dd" stroke="transparent" points="125.85,-1212.53 125.85,-1272.53 521.85,-1272.53 521.85,-1212.53 125.85,-1212.53"/>
<polygon fill="none" stroke="#29235c" points="125.85,-1212.53 125.85,-1272.53 521.85,-1272.53 521.85,-1212.53 125.85,-1212.53"/>
<text text-anchor="start" x="136.39" y="-1232.73" font-family="Helvetica,sans-Serif" font-size="32.00" fill="#29235c">status &#160;&#160;&#160;</text>
<text text-anchor="start" x="256.73" y="-1233.73" font-family="Helvetica,sans-Serif" font-style="italic" font-size="32.00" fill="#29235c">projects_status</text>
<text text-anchor="start" x="471.89" y="-1233.73" font-family="Helvetica,sans-Serif" font-size="32.00" fill="#29235c"> </text>
<text text-anchor="start" x="480.78" y="-1233.73" font-family="Helvetica,sans-Serif" font-weight="bold" font-size="32.00" fill="#29235c">(!)</text>
<polygon fill="#e7e2dd" stroke="transparent" points="125.85,-1152.53 125.85,-1212.53 521.85,-1212.53 521.85,-1152.53 125.85,-1152.53"/>
<polygon fill="none" stroke="#29235c" points="125.85,-1152.53 125.85,-1212.53 521.85,-1212.53 521.85,-1152.53 125.85,-1152.53"/>
<text text-anchor="start" x="136.85" y="-1172.73" font-family="Helvetica,sans-Serif" font-size="32.00" fill="#29235c">is_draft &#160;&#160;&#160;</text>
<text text-anchor="start" x="397.02" y="-1173.73" font-family="Helvetica,sans-Serif" font-style="italic" font-size="32.00" fill="#29235c">boolean</text>
<polygon fill="#e7e2dd" stroke="transparent" points="125.85,-1092.53 125.85,-1152.53 521.85,-1152.53 521.85,-1092.53 125.85,-1092.53"/>
<polygon fill="none" stroke="#29235c" points="125.85,-1092.53 125.85,-1152.53 521.85,-1152.53 521.85,-1092.53 125.85,-1092.53"/>
<text text-anchor="start" x="136.85" y="-1112.73" font-family="Helvetica,sans-Serif" font-size="32.00" fill="#29235c">skills &#160;&#160;&#160;</text>
<text text-anchor="start" x="459.28" y="-1113.73" font-family="Helvetica,sans-Serif" font-style="italic" font-size="32.00" fill="#29235c">text</text>
<polygon fill="#e7e2dd" stroke="transparent" points="125.85,-1032.53 125.85,-1092.53 521.85,-1092.53 521.85,-1032.53 125.85,-1032.53"/>
<polygon fill="none" stroke="#29235c" points="125.85,-1032.53 125.85,-1092.53 521.85,-1092.53 521.85,-1032.53 125.85,-1032.53"/>
<text text-anchor="start" x="136.85" y="-1052.73" font-family="Helvetica,sans-Serif" font-size="32.00" fill="#29235c">created_at &#160;&#160;&#160;</text>
<text text-anchor="start" x="363.3" y="-1053.73" font-family="Helvetica,sans-Serif" font-style="italic" font-size="32.00" fill="#29235c">timestamp</text>
<polygon fill="none" stroke="#29235c" stroke-width="2" points="124.85,-1031.53 124.85,-1573.53 522.85,-1573.53 522.85,-1031.53 124.85,-1031.53"/>
</g>
<!-- projects&#45;&gt;projects_status -->
<g id="edge4" class="edge">
<title>projects:e&#45;&gt;projects_status:w</title>
<path fill="none" stroke="#29235c" stroke-width="3" d="M522.85,-1242.53C668.41,-1242.53 700.81,-1191.53 846.36,-1191.53"/>
</g>
<!-- projects&#45;&gt;skills -->
<!-- projects&#45;&gt;skills -->
<g id="edge2" class="edge">
<title>projects:e&#45;&gt;skills:w</title>
<path fill="none" stroke="#29235c" stroke-width="3" d="M522.85,-1122.53C735.38,-1122.53 636.67,-1471.03 839.17,-1482.26"/>
<polygon fill="#29235c" stroke="#29235c" stroke-width="3" points="839.27,-1485.76 849.36,-1482.53 839.46,-1478.76 839.27,-1485.76"/>
<text text-anchor="middle" x="840.47" y="-1492.13" font-family="Helvetica,sans-Serif" font-size="32.00" fill="#29235c">1</text>
<text text-anchor="middle" x="513.96" y="-1132.13" font-family="Helvetica,sans-Serif" font-size="32.00" fill="#29235c">1</text>
</g>
</g>
</svg>
