<?xml version="1.0" encoding="UTF-8" standalone="no"?>
<!DOCTYPE svg PUBLIC "-//W3C//DTD SVG 1.1//EN"
 "http://www.w3.org/Graphics/SVG/1.1/DTD/svg11.dtd">
<!-- Generated by graphviz version 2.47.0 (20210316.0004)
 -->
<!-- Title: dbml Pages: 1 -->
<svg width="1059pt" height="1564pt"
 viewBox="0.00 0.00 1059.41 1564.33" xmlns="http://www.w3.org/2000/svg" xmlns:xlink="http://www.w3.org/1999/xlink">
<g id="graph0" class="graph" transform="scale(1 1) rotate(0) translate(4 1560.33)">
<title>dbml</title>
<!-- users -->
<g id="users" class="node">
<title>users</title>
<ellipse fill="none" stroke="black" stroke-width="0" cx="253.85" cy="-214.96" rx="253.7" ry="214.92"/>
<polygon fill="#1d71b8" stroke="transparent" points="76.85,-304.96 76.85,-364.96 431.85,-364.96 431.85,-304.96 76.85,-304.96"/>
<polygon fill="none" stroke="#29235c" points="76.85,-304.96 76.85,-364.96 431.85,-364.96 431.85,-304.96 76.85,-304.96"/>
<text text-anchor="start" x="152.99" y="-326.16" font-family="Helvetica,sans-Serif" font-weight="bold" font-size="32.00" fill="#ffffff"> &#160;&#160;&#160;&#160;&#160;&#160;users &#160;&#160;&#160;&#160;&#160;&#160;</text>
<polygon fill="#e7e2dd" stroke="transparent" points="76.85,-244.96 76.85,-304.96 431.85,-304.96 431.85,-244.96 76.85,-244.96"/>
<polygon fill="none" stroke="#29235c" points="76.85,-244.96 76.85,-304.96 431.85,-304.96 431.85,-244.96 76.85,-244.96"/>
<text text-anchor="start" x="87.85" y="-266.16" font-family="Helvetica,sans-Serif" font-weight="bold" font-size="32.00" fill="#29235c">id</text>
<text text-anchor="start" x="112.74" y="-266.16" font-family="Helvetica,sans-Serif" font-size="32.00" fill="#29235c"> &#160;&#160;&#160;</text>
<text text-anchor="start" x="330.19" y="-266.16" font-family="Helvetica,sans-Serif" font-style="italic" font-size="32.00" fill="#29235c">text</text>
<text text-anchor="start" x="381.76" y="-266.16" font-family="Helvetica,sans-Serif" font-size="32.00" fill="#29235c"> </text>
<text text-anchor="start" x="390.65" y="-266.16" font-family="Helvetica,sans-Serif" font-weight="bold" font-size="32.00" fill="#29235c">(!)</text>
<polygon fill="#e7e2dd" stroke="transparent" points="76.85,-184.96 76.85,-244.96 431.85,-244.96 431.85,-184.96 76.85,-184.96"/>
<polygon fill="none" stroke="#29235c" points="76.85,-184.96 76.85,-244.96 431.85,-244.96 431.85,-184.96 76.85,-184.96"/>
<text text-anchor="start" x="87.85" y="-205.16" font-family="Helvetica,sans-Serif" font-size="32.00" fill="#29235c">name &#160;&#160;&#160;</text>
<text text-anchor="start" x="369.28" y="-206.16" font-family="Helvetica,sans-Serif" font-style="italic" font-size="32.00" fill="#29235c">text</text>
<polygon fill="#e7e2dd" stroke="transparent" points="76.85,-124.96 76.85,-184.96 431.85,-184.96 431.85,-124.96 76.85,-124.96"/>
<polygon fill="none" stroke="#29235c" points="76.85,-124.96 76.85,-184.96 431.85,-184.96 431.85,-124.96 76.85,-124.96"/>
<text text-anchor="start" x="87.85" y="-145.16" font-family="Helvetica,sans-Serif" font-size="32.00" fill="#29235c">avatar &#160;&#160;&#160;</text>
<text text-anchor="start" x="369.28" y="-146.16" font-family="Helvetica,sans-Serif" font-style="italic" font-size="32.00" fill="#29235c">text</text>
<polygon fill="#e7e2dd" stroke="transparent" points="76.85,-64.96 76.85,-124.96 431.85,-124.96 431.85,-64.96 76.85,-64.96"/>
<polygon fill="none" stroke="#29235c" points="76.85,-64.96 76.85,-124.96 431.85,-124.96 431.85,-64.96 76.85,-64.96"/>
<text text-anchor="start" x="87.48" y="-85.16" font-family="Helvetica,sans-Serif" font-size="32.00" fill="#29235c">created_at &#160;&#160;&#160;</text>
<text text-anchor="start" x="273.57" y="-86.16" font-family="Helvetica,sans-Serif" font-style="italic" font-size="32.00" fill="#29235c">timestamp</text>
<polygon fill="none" stroke="#29235c" stroke-width="2" points="75.35,-63.96 75.35,-365.96 432.35,-365.96 432.35,-63.96 75.35,-63.96"/>
</g>
<!-- categories -->
<g id="categories" class="node">
<title>categories</title>
<ellipse fill="none" stroke="black" stroke-width="0" cx="797.55" cy="-1271.96" rx="253.7" ry="172.57"/>
<polygon fill="#1d71b8" stroke="transparent" points="620.55,-1331.96 620.55,-1391.96 975.55,-1391.96 975.55,-1331.96 620.55,-1331.96"/>
<polygon fill="none" stroke="#29235c" points="620.55,-1331.96 620.55,-1391.96 975.55,-1391.96 975.55,-1331.96 620.55,-1331.96"/>
<text text-anchor="start" x="662.01" y="-1353.16" font-family="Helvetica,sans-Serif" font-weight="bold" font-size="32.00" fill="#ffffff"> &#160;&#160;&#160;&#160;&#160;&#160;categories &#160;&#160;&#160;&#160;&#160;&#160;</text>
<polygon fill="#e7e2dd" stroke="transparent" points="620.55,-1271.96 620.55,-1331.96 975.55,-1331.96 975.55,-1271.96 620.55,-1271.96"/>
<polygon fill="none" stroke="#29235c" points="620.55,-1271.96 620.55,-1331.96 975.55,-1331.96 975.55,-1271.96 620.55,-1271.96"/>
<text text-anchor="start" x="631.55" y="-1293.16" font-family="Helvetica,sans-Serif" font-weight="bold" font-size="32.00" fill="#29235c">id</text>
<text text-anchor="start" x="656.44" y="-1293.16" font-family="Helvetica,sans-Serif" font-size="32.00" fill="#29235c"> &#160;&#160;&#160;</text>
<text text-anchor="start" x="873.89" y="-1293.16" font-family="Helvetica,sans-Serif" font-style="italic" font-size="32.00" fill="#29235c">text</text>
<text text-anchor="start" x="925.46" y="-1293.16" font-family="Helvetica,sans-Serif" font-size="32.00" fill="#29235c"> </text>
<text text-anchor="start" x="934.36" y="-1293.16" font-family="Helvetica,sans-Serif" font-weight="bold" font-size="32.00" fill="#29235c">(!)</text>
<polygon fill="#e7e2dd" stroke="transparent" points="620.55,-1211.96 620.55,-1271.96 975.55,-1271.96 975.55,-1211.96 620.55,-1211.96"/>
<polygon fill="none" stroke="#29235c" points="620.55,-1211.96 620.55,-1271.96 975.55,-1271.96 975.55,-1211.96 620.55,-1211.96"/>
<text text-anchor="start" x="631.55" y="-1232.16" font-family="Helvetica,sans-Serif" font-size="32.00" fill="#29235c">name &#160;&#160;&#160;</text>
<text text-anchor="start" x="873.89" y="-1233.16" font-family="Helvetica,sans-Serif" font-style="italic" font-size="32.00" fill="#29235c">text</text>
<text text-anchor="start" x="925.46" y="-1233.16" font-family="Helvetica,sans-Serif" font-size="32.00" fill="#29235c"> </text>
<text text-anchor="start" x="934.36" y="-1233.16" font-family="Helvetica,sans-Serif" font-weight="bold" font-size="32.00" fill="#29235c">(!)</text>
<polygon fill="#e7e2dd" stroke="transparent" points="620.55,-1151.96 620.55,-1211.96 975.55,-1211.96 975.55,-1151.96 620.55,-1151.96"/>
<polygon fill="none" stroke="#29235c" points="620.55,-1151.96 620.55,-1211.96 975.55,-1211.96 975.55,-1151.96 620.55,-1151.96"/>
<text text-anchor="start" x="631.18" y="-1172.16" font-family="Helvetica,sans-Serif" font-size="32.00" fill="#29235c">created_at &#160;&#160;&#160;</text>
<text text-anchor="start" x="817.27" y="-1173.16" font-family="Helvetica,sans-Serif" font-style="italic" font-size="32.00" fill="#29235c">timestamp</text>
<polygon fill="none" stroke="#29235c" stroke-width="2" points="619.05,-1150.96 619.05,-1392.96 976.05,-1392.96 976.05,-1150.96 619.05,-1150.96"/>
</g>
<!-- posts -->
<g id="posts" class="node">
<title>posts</title>
<ellipse fill="none" stroke="black" stroke-width="0" cx="253.85" cy="-1001.96" rx="253.7" ry="554.24"/>
<polygon fill="#1d71b8" stroke="transparent" points="76.85,-1331.96 76.85,-1391.96 431.85,-1391.96 431.85,-1331.96 76.85,-1331.96"/>
<polygon fill="none" stroke="#29235c" points="76.85,-1331.96 76.85,-1391.96 431.85,-1391.96 431.85,-1331.96 76.85,-1331.96"/>
<text text-anchor="start" x="153.87" y="-1353.16" font-family="Helvetica,sans-Serif" font-weight="bold" font-size="32.00" fill="#ffffff"> &#160;&#160;&#160;&#160;&#160;&#160;posts &#160;&#160;&#160;&#160;&#160;&#160;</text>
<polygon fill="#e7e2dd" stroke="transparent" points="76.85,-1271.96 76.85,-1331.96 431.85,-1331.96 431.85,-1271.96 76.85,-1271.96"/>
<polygon fill="none" stroke="#29235c" points="76.85,-1271.96 76.85,-1331.96 431.85,-1331.96 431.85,-1271.96 76.85,-1271.96"/>
<text text-anchor="start" x="87.85" y="-1293.16" font-family="Helvetica,sans-Serif" font-weight="bold" font-size="32.00" fill="#29235c">id</text>
<text text-anchor="start" x="112.74" y="-1293.16" font-family="Helvetica,sans-Serif" font-size="32.00" fill="#29235c"> &#160;&#160;&#160;</text>
<text text-anchor="start" x="330.19" y="-1293.16" font-family="Helvetica,sans-Serif" font-style="italic" font-size="32.00" fill="#29235c">text</text>
<text text-anchor="start" x="381.76" y="-1293.16" font-family="Helvetica,sans-Serif" font-size="32.00" fill="#29235c"> </text>
<text text-anchor="start" x="390.65" y="-1293.16" font-family="Helvetica,sans-Serif" font-weight="bold" font-size="32.00" fill="#29235c">(!)</text>
<polygon fill="#e7e2dd" stroke="transparent" points="76.85,-1211.96 76.85,-1271.96 431.85,-1271.96 431.85,-1211.96 76.85,-1211.96"/>
<polygon fill="none" stroke="#29235c" points="76.85,-1211.96 76.85,-1271.96 431.85,-1271.96 431.85,-1211.96 76.85,-1211.96"/>
<text text-anchor="start" x="87.85" y="-1232.16" font-family="Helvetica,sans-Serif" font-size="32.00" fill="#29235c">image &#160;&#160;&#160;</text>
<text text-anchor="start" x="369.28" y="-1233.16" font-family="Helvetica,sans-Serif" font-style="italic" font-size="32.00" fill="#29235c">text</text>
<polygon fill="#e7e2dd" stroke="transparent" points="76.85,-1151.96 76.85,-1211.96 431.85,-1211.96 431.85,-1151.96 76.85,-1151.96"/>
<polygon fill="none" stroke="#29235c" points="76.85,-1151.96 76.85,-1211.96 431.85,-1211.96 431.85,-1151.96 76.85,-1151.96"/>
<text text-anchor="start" x="87.85" y="-1172.16" font-family="Helvetica,sans-Serif" font-size="32.00" fill="#29235c">slug &#160;&#160;&#160;</text>
<text text-anchor="start" x="330.19" y="-1173.16" font-family="Helvetica,sans-Serif" font-style="italic" font-size="32.00" fill="#29235c">text</text>
<text text-anchor="start" x="381.76" y="-1173.16" font-family="Helvetica,sans-Serif" font-size="32.00" fill="#29235c"> </text>
<text text-anchor="start" x="390.65" y="-1173.16" font-family="Helvetica,sans-Serif" font-weight="bold" font-size="32.00" fill="#29235c">(!)</text>
<polygon fill="#e7e2dd" stroke="transparent" points="76.85,-1091.96 76.85,-1151.96 431.85,-1151.96 431.85,-1091.96 76.85,-1091.96"/>
<polygon fill="none" stroke="#29235c" points="76.85,-1091.96 76.85,-1151.96 431.85,-1151.96 431.85,-1091.96 76.85,-1091.96"/>
<text text-anchor="start" x="87.85" y="-1112.16" font-family="Helvetica,sans-Serif" font-size="32.00" fill="#29235c">title &#160;&#160;&#160;</text>
<text text-anchor="start" x="330.19" y="-1113.16" font-family="Helvetica,sans-Serif" font-style="italic" font-size="32.00" fill="#29235c">text</text>
<text text-anchor="start" x="381.76" y="-1113.16" font-family="Helvetica,sans-Serif" font-size="32.00" fill="#29235c"> </text>
<text text-anchor="start" x="390.65" y="-1113.16" font-family="Helvetica,sans-Serif" font-weight="bold" font-size="32.00" fill="#29235c">(!)</text>
<polygon fill="#e7e2dd" stroke="transparent" points="76.85,-1031.96 76.85,-1091.96 431.85,-1091.96 431.85,-1031.96 76.85,-1031.96"/>
<polygon fill="none" stroke="#29235c" points="76.85,-1031.96 76.85,-1091.96 431.85,-1091.96 431.85,-1031.96 76.85,-1031.96"/>
<text text-anchor="start" x="87.85" y="-1052.16" font-family="Helvetica,sans-Serif" font-size="32.00" fill="#29235c">summary &#160;&#160;&#160;</text>
<text text-anchor="start" x="369.28" y="-1053.16" font-family="Helvetica,sans-Serif" font-style="italic" font-size="32.00" fill="#29235c">text</text>
<polygon fill="#e7e2dd" stroke="transparent" points="76.85,-971.96 76.85,-1031.96 431.85,-1031.96 431.85,-971.96 76.85,-971.96"/>
<polygon fill="none" stroke="#29235c" points="76.85,-971.96 76.85,-1031.96 431.85,-1031.96 431.85,-971.96 76.85,-971.96"/>
<text text-anchor="start" x="87.85" y="-992.16" font-family="Helvetica,sans-Serif" font-size="32.00" fill="#29235c">content &#160;&#160;&#160;</text>
<text text-anchor="start" x="330.19" y="-993.16" font-family="Helvetica,sans-Serif" font-style="italic" font-size="32.00" fill="#29235c">text</text>
<text text-anchor="start" x="381.76" y="-993.16" font-family="Helvetica,sans-Serif" font-size="32.00" fill="#29235c"> </text>
<text text-anchor="start" x="390.65" y="-993.16" font-family="Helvetica,sans-Serif" font-weight="bold" font-size="32.00" fill="#29235c">(!)</text>
<polygon fill="#e7e2dd" stroke="transparent" points="76.85,-911.96 76.85,-971.96 431.85,-971.96 431.85,-911.96 76.85,-911.96"/>
<polygon fill="none" stroke="#29235c" points="76.85,-911.96 76.85,-971.96 431.85,-971.96 431.85,-911.96 76.85,-911.96"/>
<text text-anchor="start" x="87.85" y="-932.16" font-family="Helvetica,sans-Serif" font-size="32.00" fill="#29235c">keywords &#160;&#160;&#160;</text>
<text text-anchor="start" x="369.28" y="-933.16" font-family="Helvetica,sans-Serif" font-style="italic" font-size="32.00" fill="#29235c">text</text>
<polygon fill="#e7e2dd" stroke="transparent" points="76.85,-851.96 76.85,-911.96 431.85,-911.96 431.85,-851.96 76.85,-851.96"/>
<polygon fill="none" stroke="#29235c" points="76.85,-851.96 76.85,-911.96 431.85,-911.96 431.85,-851.96 76.85,-851.96"/>
<text text-anchor="start" x="87.85" y="-872.16" font-family="Helvetica,sans-Serif" font-size="32.00" fill="#29235c">categories &#160;&#160;&#160;</text>
<text text-anchor="start" x="369.28" y="-873.16" font-family="Helvetica,sans-Serif" font-style="italic" font-size="32.00" fill="#29235c">text</text>
<polygon fill="#e7e2dd" stroke="transparent" points="76.85,-791.96 76.85,-851.96 431.85,-851.96 431.85,-791.96 76.85,-791.96"/>
<polygon fill="none" stroke="#29235c" points="76.85,-791.96 76.85,-851.96 431.85,-851.96 431.85,-791.96 76.85,-791.96"/>
<text text-anchor="start" x="87.85" y="-812.16" font-family="Helvetica,sans-Serif" font-size="32.00" fill="#29235c">is_draft &#160;&#160;&#160;</text>
<text text-anchor="start" x="307.02" y="-813.16" font-family="Helvetica,sans-Serif" font-style="italic" font-size="32.00" fill="#29235c">boolean</text>
<polygon fill="#e7e2dd" stroke="transparent" points="76.85,-731.96 76.85,-791.96 431.85,-791.96 431.85,-731.96 76.85,-731.96"/>
<polygon fill="none" stroke="#29235c" points="76.85,-731.96 76.85,-791.96 431.85,-791.96 431.85,-731.96 76.85,-731.96"/>
<text text-anchor="start" x="87.85" y="-752.16" font-family="Helvetica,sans-Serif" font-size="32.00" fill="#29235c">date &#160;&#160;&#160;</text>
<text text-anchor="start" x="234.2" y="-753.16" font-family="Helvetica,sans-Serif" font-style="italic" font-size="32.00" fill="#29235c">timestamp</text>
<text text-anchor="start" x="381.76" y="-753.16" font-family="Helvetica,sans-Serif" font-size="32.00" fill="#29235c"> </text>
<text text-anchor="start" x="390.65" y="-753.16" font-family="Helvetica,sans-Serif" font-weight="bold" font-size="32.00" fill="#29235c">(!)</text>
<polygon fill="#e7e2dd" stroke="transparent" points="76.85,-671.96 76.85,-731.96 431.85,-731.96 431.85,-671.96 76.85,-671.96"/>
<polygon fill="none" stroke="#29235c" points="76.85,-671.96 76.85,-731.96 431.85,-731.96 431.85,-671.96 76.85,-671.96"/>
<text text-anchor="start" x="87.85" y="-692.16" font-family="Helvetica,sans-Serif" font-size="32.00" fill="#29235c">comments &#160;&#160;&#160;</text>
<text text-anchor="start" x="369.28" y="-693.16" font-family="Helvetica,sans-Serif" font-style="italic" font-size="32.00" fill="#29235c">text</text>
<polygon fill="#e7e2dd" stroke="transparent" points="76.85,-611.96 76.85,-671.96 431.85,-671.96 431.85,-611.96 76.85,-611.96"/>
<polygon fill="none" stroke="#29235c" points="76.85,-611.96 76.85,-671.96 431.85,-671.96 431.85,-611.96 76.85,-611.96"/>
<text text-anchor="start" x="87.48" y="-632.16" font-family="Helvetica,sans-Serif" font-size="32.00" fill="#29235c">created_at &#160;&#160;&#160;</text>
<text text-anchor="start" x="273.57" y="-633.16" font-family="Helvetica,sans-Serif" font-style="italic" font-size="32.00" fill="#29235c">timestamp</text>
<polygon fill="none" stroke="#29235c" stroke-width="2" points="75.35,-610.96 75.35,-1392.96 432.35,-1392.96 432.35,-610.96 75.35,-610.96"/>
</g>
<!-- posts&#45;&gt;categories -->
<!-- posts&#45;&gt;categories -->
<g id="edge2" class="edge">
<title>posts:e&#45;&gt;categories:w</title>
<path fill="none" stroke="#29235c" stroke-width="3" d="M432.85,-881.96C633.64,-881.96 422.73,-1287.73 609.45,-1301.6"/>
<polygon fill="#29235c" stroke="#29235c" stroke-width="3" points="609.43,-1305.1 619.55,-1301.96 609.69,-1298.1 609.43,-1305.1"/>
<text text-anchor="middle" x="628.45" y="-1311.56" font-family="Helvetica,sans-Serif" font-size="32.00" fill="#29235c">1</text>
<text text-anchor="middle" x="426.63" y="-891.56" font-family="Helvetica,sans-Serif" font-size="32.00" fill="#29235c">*</text>
</g>
<!-- comments -->
<g id="comments" class="node">
<title>comments</title>
<ellipse fill="none" stroke="black" stroke-width="0" cx="797.55" cy="-866.96" rx="253.7" ry="214.92"/>
<polygon fill="#1d71b8" stroke="transparent" points="620.55,-956.96 620.55,-1016.96 975.55,-1016.96 975.55,-956.96 620.55,-956.96"/>
<polygon fill="none" stroke="#29235c" points="620.55,-956.96 620.55,-1016.96 975.55,-1016.96 975.55,-956.96 620.55,-956.96"/>
<text text-anchor="start" x="662.02" y="-978.16" font-family="Helvetica,sans-Serif" font-weight="bold" font-size="32.00" fill="#ffffff"> &#160;&#160;&#160;&#160;&#160;&#160;comments &#160;&#160;&#160;&#160;&#160;&#160;</text>
<polygon fill="#e7e2dd" stroke="transparent" points="620.55,-896.96 620.55,-956.96 975.55,-956.96 975.55,-896.96 620.55,-896.96"/>
<polygon fill="none" stroke="#29235c" points="620.55,-896.96 620.55,-956.96 975.55,-956.96 975.55,-896.96 620.55,-896.96"/>
<text text-anchor="start" x="631.55" y="-918.16" font-family="Helvetica,sans-Serif" font-weight="bold" font-size="32.00" fill="#29235c">id</text>
<text text-anchor="start" x="656.44" y="-918.16" font-family="Helvetica,sans-Serif" font-size="32.00" fill="#29235c"> &#160;&#160;&#160;</text>
<text text-anchor="start" x="873.89" y="-918.16" font-family="Helvetica,sans-Serif" font-style="italic" font-size="32.00" fill="#29235c">text</text>
<text text-anchor="start" x="925.46" y="-918.16" font-family="Helvetica,sans-Serif" font-size="32.00" fill="#29235c"> </text>
<text text-anchor="start" x="934.36" y="-918.16" font-family="Helvetica,sans-Serif" font-weight="bold" font-size="32.00" fill="#29235c">(!)</text>
<polygon fill="#e7e2dd" stroke="transparent" points="620.55,-836.96 620.55,-896.96 975.55,-896.96 975.55,-836.96 620.55,-836.96"/>
<polygon fill="none" stroke="#29235c" points="620.55,-836.96 620.55,-896.96 975.55,-896.96 975.55,-836.96 620.55,-836.96"/>
<text text-anchor="start" x="631.55" y="-857.16" font-family="Helvetica,sans-Serif" font-size="32.00" fill="#29235c">name &#160;&#160;&#160;</text>
<text text-anchor="start" x="873.89" y="-858.16" font-family="Helvetica,sans-Serif" font-style="italic" font-size="32.00" fill="#29235c">text</text>
<text text-anchor="start" x="925.46" y="-858.16" font-family="Helvetica,sans-Serif" font-size="32.00" fill="#29235c"> </text>
<text text-anchor="start" x="934.36" y="-858.16" font-family="Helvetica,sans-Serif" font-weight="bold" font-size="32.00" fill="#29235c">(!)</text>
<polygon fill="#e7e2dd" stroke="transparent" points="620.55,-776.96 620.55,-836.96 975.55,-836.96 975.55,-776.96 620.55,-776.96"/>
<polygon fill="none" stroke="#29235c" points="620.55,-776.96 620.55,-836.96 975.55,-836.96 975.55,-776.96 620.55,-776.96"/>
<text text-anchor="start" x="631.55" y="-797.16" font-family="Helvetica,sans-Serif" font-size="32.00" fill="#29235c">content &#160;&#160;&#160;</text>
<text text-anchor="start" x="873.89" y="-798.16" font-family="Helvetica,sans-Serif" font-style="italic" font-size="32.00" fill="#29235c">text</text>
<text text-anchor="start" x="925.46" y="-798.16" font-family="Helvetica,sans-Serif" font-size="32.00" fill="#29235c"> </text>
<text text-anchor="start" x="934.36" y="-798.16" font-family="Helvetica,sans-Serif" font-weight="bold" font-size="32.00" fill="#29235c">(!)</text>
<polygon fill="#e7e2dd" stroke="transparent" points="620.55,-716.96 620.55,-776.96 975.55,-776.96 975.55,-716.96 620.55,-716.96"/>
<polygon fill="none" stroke="#29235c" points="620.55,-716.96 620.55,-776.96 975.55,-776.96 975.55,-716.96 620.55,-716.96"/>
<text text-anchor="start" x="631.18" y="-737.16" font-family="Helvetica,sans-Serif" font-size="32.00" fill="#29235c">created_at &#160;&#160;&#160;</text>
<text text-anchor="start" x="817.27" y="-738.16" font-family="Helvetica,sans-Serif" font-style="italic" font-size="32.00" fill="#29235c">timestamp</text>
<polygon fill="none" stroke="#29235c" stroke-width="2" points="619.05,-715.96 619.05,-1017.96 976.05,-1017.96 976.05,-715.96 619.05,-715.96"/>
</g>
<!-- posts&#45;&gt;comments -->
<!-- posts&#45;&gt;comments -->
<g id="edge4" class="edge">
<title>posts:e&#45;&gt;comments:w</title>
<path fill="none" stroke="#29235c" stroke-width="3" d="M432.85,-701.96C559.24,-701.96 493.46,-914.82 609.34,-926.46"/>
<polygon fill="#29235c" stroke="#29235c" stroke-width="3" points="609.4,-929.97 619.55,-926.96 609.74,-922.98 609.4,-929.97"/>
<text text-anchor="middle" x="628.45" y="-936.56" font-family="Helvetica,sans-Serif" font-size="32.00" fill="#29235c">1</text>
<text text-anchor="middle" x="426.63" y="-711.56" font-family="Helvetica,sans-Serif" font-size="32.00" fill="#29235c">*</text>
</g>
</g>
</svg>
