<?xml version="1.0" encoding="UTF-8" standalone="no"?>
<!DOCTYPE svg PUBLIC "-//W3C//DTD SVG 1.1//EN"
 "http://www.w3.org/Graphics/SVG/1.1/DTD/svg11.dtd">
<!-- Generated by graphviz version 2.47.0 (20210316.0004)
 -->
<!-- Title: dbml Pages: 1 -->
<svg width="1603pt" height="1045pt"
 viewBox="0.00 0.00 1603.11 1044.91" xmlns="http://www.w3.org/2000/svg" xmlns:xlink="http://www.w3.org/1999/xlink">
<g id="graph0" class="graph" transform="scale(1 1) rotate(0) translate(4 1040.91)">
<title>dbml</title>
<!-- users -->
<g id="users" class="node">
<title>users</title>
<ellipse fill="none" stroke="black" stroke-width="0" cx="253.85" cy="-214.96" rx="253.7" ry="214.92"/>
<polygon fill="#1d71b8" stroke="transparent" points="76.85,-304.96 76.85,-364.96 431.85,-364.96 431.85,-304.96 76.85,-304.96"/>
<polygon fill="none" stroke="#29235c" points="76.85,-304.96 76.85,-364.96 431.85,-364.96 431.85,-304.96 76.85,-304.96"/>
<text text-anchor="start" x="152.99" y="-326.16" font-family="Helvetica,sans-Serif" font-weight="bold" font-size="32.00" fill="#ffffff"> &#160;&#160;&#160;&#160;&#160;&#160;users &#160;&#160;&#160;&#160;&#160;&#160;</text>
<polygon fill="#e7e2dd" stroke="transparent" points="76.85,-244.96 76.85,-304.96 431.85,-304.96 431.85,-244.96 76.85,-244.96"/>
<polygon fill="none" stroke="#29235c" points="76.85,-244.96 76.85,-304.96 431.85,-304.96 431.85,-244.96 76.85,-244.96"/>
<text text-anchor="start" x="87.85" y="-266.16" font-family="Helvetica,sans-Serif" font-weight="bold" font-size="32.00" fill="#29235c">id</text>
<text text-anchor="start" x="112.74" y="-266.16" font-family="Helvetica,sans-Serif" font-size="32.00" fill="#29235c"> &#160;&#160;&#160;</text>
<text text-anchor="start" x="330.19" y="-266.16" font-family="Helvetica,sans-Serif" font-style="italic" font-size="32.00" fill="#29235c">text</text>
<text text-anchor="start" x="381.76" y="-266.16" font-family="Helvetica,sans-Serif" font-size="32.00" fill="#29235c"> </text>
<text text-anchor="start" x="390.65" y="-266.16" font-family="Helvetica,sans-Serif" font-weight="bold" font-size="32.00" fill="#29235c">(!)</text>
<polygon fill="#e7e2dd" stroke="transparent" points="76.85,-184.96 76.85,-244.96 431.85,-244.96 431.85,-184.96 76.85,-184.96"/>
<polygon fill="none" stroke="#29235c" points="76.85,-184.96 76.85,-244.96 431.85,-244.96 431.85,-184.96 76.85,-184.96"/>
<text text-anchor="start" x="87.85" y="-205.16" font-family="Helvetica,sans-Serif" font-size="32.00" fill="#29235c">name &#160;&#160;&#160;</text>
<text text-anchor="start" x="369.28" y="-206.16" font-family="Helvetica,sans-Serif" font-style="italic" font-size="32.00" fill="#29235c">text</text>
<polygon fill="#e7e2dd" stroke="transparent" points="76.85,-124.96 76.85,-184.96 431.85,-184.96 431.85,-124.96 76.85,-124.96"/>
<polygon fill="none" stroke="#29235c" points="76.85,-124.96 76.85,-184.96 431.85,-184.96 431.85,-124.96 76.85,-124.96"/>
<text text-anchor="start" x="87.85" y="-145.16" font-family="Helvetica,sans-Serif" font-size="32.00" fill="#29235c">avatar &#160;&#160;&#160;</text>
<text text-anchor="start" x="369.28" y="-146.16" font-family="Helvetica,sans-Serif" font-style="italic" font-size="32.00" fill="#29235c">text</text>
<polygon fill="#e7e2dd" stroke="transparent" points="76.85,-64.96 76.85,-124.96 431.85,-124.96 431.85,-64.96 76.85,-64.96"/>
<polygon fill="none" stroke="#29235c" points="76.85,-64.96 76.85,-124.96 431.85,-124.96 431.85,-64.96 76.85,-64.96"/>
<text text-anchor="start" x="87.48" y="-85.16" font-family="Helvetica,sans-Serif" font-size="32.00" fill="#29235c">created_at &#160;&#160;&#160;</text>
<text text-anchor="start" x="273.57" y="-86.16" font-family="Helvetica,sans-Serif" font-style="italic" font-size="32.00" fill="#29235c">timestamp</text>
<polygon fill="none" stroke="#29235c" stroke-width="2" points="75.35,-63.96 75.35,-365.96 432.35,-365.96 432.35,-63.96 75.35,-63.96"/>
</g>
<!-- categories -->
<g id="categories" class="node">
<title>categories</title>
<ellipse fill="none" stroke="black" stroke-width="0" cx="1341.26" cy="-764.96" rx="253.7" ry="172.57"/>
<polygon fill="#1d71b8" stroke="transparent" points="1164.26,-824.96 1164.26,-884.96 1519.26,-884.96 1519.26,-824.96 1164.26,-824.96"/>
<polygon fill="none" stroke="#29235c" points="1164.26,-824.96 1164.26,-884.96 1519.26,-884.96 1519.26,-824.96 1164.26,-824.96"/>
<text text-anchor="start" x="1205.71" y="-846.16" font-family="Helvetica,sans-Serif" font-weight="bold" font-size="32.00" fill="#ffffff"> &#160;&#160;&#160;&#160;&#160;&#160;categories &#160;&#160;&#160;&#160;&#160;&#160;</text>
<polygon fill="#e7e2dd" stroke="transparent" points="1164.26,-764.96 1164.26,-824.96 1519.26,-824.96 1519.26,-764.96 1164.26,-764.96"/>
<polygon fill="none" stroke="#29235c" points="1164.26,-764.96 1164.26,-824.96 1519.26,-824.96 1519.26,-764.96 1164.26,-764.96"/>
<text text-anchor="start" x="1175.26" y="-786.16" font-family="Helvetica,sans-Serif" font-weight="bold" font-size="32.00" fill="#29235c">id</text>
<text text-anchor="start" x="1200.15" y="-786.16" font-family="Helvetica,sans-Serif" font-size="32.00" fill="#29235c"> &#160;&#160;&#160;</text>
<text text-anchor="start" x="1417.59" y="-786.16" font-family="Helvetica,sans-Serif" font-style="italic" font-size="32.00" fill="#29235c">text</text>
<text text-anchor="start" x="1469.17" y="-786.16" font-family="Helvetica,sans-Serif" font-size="32.00" fill="#29235c"> </text>
<text text-anchor="start" x="1478.06" y="-786.16" font-family="Helvetica,sans-Serif" font-weight="bold" font-size="32.00" fill="#29235c">(!)</text>
<polygon fill="#e7e2dd" stroke="transparent" points="1164.26,-704.96 1164.26,-764.96 1519.26,-764.96 1519.26,-704.96 1164.26,-704.96"/>
<polygon fill="none" stroke="#29235c" points="1164.26,-704.96 1164.26,-764.96 1519.26,-764.96 1519.26,-704.96 1164.26,-704.96"/>
<text text-anchor="start" x="1175.26" y="-725.16" font-family="Helvetica,sans-Serif" font-size="32.00" fill="#29235c">name &#160;&#160;&#160;</text>
<text text-anchor="start" x="1417.59" y="-726.16" font-family="Helvetica,sans-Serif" font-style="italic" font-size="32.00" fill="#29235c">text</text>
<text text-anchor="start" x="1469.17" y="-726.16" font-family="Helvetica,sans-Serif" font-size="32.00" fill="#29235c"> </text>
<text text-anchor="start" x="1478.06" y="-726.16" font-family="Helvetica,sans-Serif" font-weight="bold" font-size="32.00" fill="#29235c">(!)</text>
<polygon fill="#e7e2dd" stroke="transparent" points="1164.26,-644.96 1164.26,-704.96 1519.26,-704.96 1519.26,-644.96 1164.26,-644.96"/>
<polygon fill="none" stroke="#29235c" points="1164.26,-644.96 1164.26,-704.96 1519.26,-704.96 1519.26,-644.96 1164.26,-644.96"/>
<text text-anchor="start" x="1174.89" y="-665.16" font-family="Helvetica,sans-Serif" font-size="32.00" fill="#29235c">created_at &#160;&#160;&#160;</text>
<text text-anchor="start" x="1360.98" y="-666.16" font-family="Helvetica,sans-Serif" font-style="italic" font-size="32.00" fill="#29235c">timestamp</text>
<polygon fill="none" stroke="#29235c" stroke-width="2" points="1162.76,-643.96 1162.76,-885.96 1519.76,-885.96 1519.76,-643.96 1162.76,-643.96"/>
</g>
<!-- posts -->
<g id="posts" class="node">
<title>posts</title>
<ellipse fill="none" stroke="black" stroke-width="0" cx="797.55" cy="-524.96" rx="253.7" ry="511.89"/>
<polygon fill="#1d71b8" stroke="transparent" points="620.55,-824.96 620.55,-884.96 975.55,-884.96 975.55,-824.96 620.55,-824.96"/>
<polygon fill="none" stroke="#29235c" points="620.55,-824.96 620.55,-884.96 975.55,-884.96 975.55,-824.96 620.55,-824.96"/>
<text text-anchor="start" x="697.57" y="-846.16" font-family="Helvetica,sans-Serif" font-weight="bold" font-size="32.00" fill="#ffffff"> &#160;&#160;&#160;&#160;&#160;&#160;posts &#160;&#160;&#160;&#160;&#160;&#160;</text>
<polygon fill="#e7e2dd" stroke="transparent" points="620.55,-764.96 620.55,-824.96 975.55,-824.96 975.55,-764.96 620.55,-764.96"/>
<polygon fill="none" stroke="#29235c" points="620.55,-764.96 620.55,-824.96 975.55,-824.96 975.55,-764.96 620.55,-764.96"/>
<text text-anchor="start" x="631.55" y="-786.16" font-family="Helvetica,sans-Serif" font-weight="bold" font-size="32.00" fill="#29235c">id</text>
<text text-anchor="start" x="656.44" y="-786.16" font-family="Helvetica,sans-Serif" font-size="32.00" fill="#29235c"> &#160;&#160;&#160;</text>
<text text-anchor="start" x="873.89" y="-786.16" font-family="Helvetica,sans-Serif" font-style="italic" font-size="32.00" fill="#29235c">text</text>
<text text-anchor="start" x="925.46" y="-786.16" font-family="Helvetica,sans-Serif" font-size="32.00" fill="#29235c"> </text>
<text text-anchor="start" x="934.36" y="-786.16" font-family="Helvetica,sans-Serif" font-weight="bold" font-size="32.00" fill="#29235c">(!)</text>
<polygon fill="#e7e2dd" stroke="transparent" points="620.55,-704.96 620.55,-764.96 975.55,-764.96 975.55,-704.96 620.55,-704.96"/>
<polygon fill="none" stroke="#29235c" points="620.55,-704.96 620.55,-764.96 975.55,-764.96 975.55,-704.96 620.55,-704.96"/>
<text text-anchor="start" x="631.55" y="-725.16" font-family="Helvetica,sans-Serif" font-size="32.00" fill="#29235c">image &#160;&#160;&#160;</text>
<text text-anchor="start" x="912.98" y="-726.16" font-family="Helvetica,sans-Serif" font-style="italic" font-size="32.00" fill="#29235c">text</text>
<polygon fill="#e7e2dd" stroke="transparent" points="620.55,-644.96 620.55,-704.96 975.55,-704.96 975.55,-644.96 620.55,-644.96"/>
<polygon fill="none" stroke="#29235c" points="620.55,-644.96 620.55,-704.96 975.55,-704.96 975.55,-644.96 620.55,-644.96"/>
<text text-anchor="start" x="631.55" y="-665.16" font-family="Helvetica,sans-Serif" font-size="32.00" fill="#29235c">slug &#160;&#160;&#160;</text>
<text text-anchor="start" x="873.89" y="-666.16" font-family="Helvetica,sans-Serif" font-style="italic" font-size="32.00" fill="#29235c">text</text>
<text text-anchor="start" x="925.46" y="-666.16" font-family="Helvetica,sans-Serif" font-size="32.00" fill="#29235c"> </text>
<text text-anchor="start" x="934.36" y="-666.16" font-family="Helvetica,sans-Serif" font-weight="bold" font-size="32.00" fill="#29235c">(!)</text>
<polygon fill="#e7e2dd" stroke="transparent" points="620.55,-584.96 620.55,-644.96 975.55,-644.96 975.55,-584.96 620.55,-584.96"/>
<polygon fill="none" stroke="#29235c" points="620.55,-584.96 620.55,-644.96 975.55,-644.96 975.55,-584.96 620.55,-584.96"/>
<text text-anchor="start" x="631.55" y="-605.16" font-family="Helvetica,sans-Serif" font-size="32.00" fill="#29235c">title &#160;&#160;&#160;</text>
<text text-anchor="start" x="873.89" y="-606.16" font-family="Helvetica,sans-Serif" font-style="italic" font-size="32.00" fill="#29235c">text</text>
<text text-anchor="start" x="925.46" y="-606.16" font-family="Helvetica,sans-Serif" font-size="32.00" fill="#29235c"> </text>
<text text-anchor="start" x="934.36" y="-606.16" font-family="Helvetica,sans-Serif" font-weight="bold" font-size="32.00" fill="#29235c">(!)</text>
<polygon fill="#e7e2dd" stroke="transparent" points="620.55,-524.96 620.55,-584.96 975.55,-584.96 975.55,-524.96 620.55,-524.96"/>
<polygon fill="none" stroke="#29235c" points="620.55,-524.96 620.55,-584.96 975.55,-584.96 975.55,-524.96 620.55,-524.96"/>
<text text-anchor="start" x="631.55" y="-545.16" font-family="Helvetica,sans-Serif" font-size="32.00" fill="#29235c">summary &#160;&#160;&#160;</text>
<text text-anchor="start" x="912.98" y="-546.16" font-family="Helvetica,sans-Serif" font-style="italic" font-size="32.00" fill="#29235c">text</text>
<polygon fill="#e7e2dd" stroke="transparent" points="620.55,-464.96 620.55,-524.96 975.55,-524.96 975.55,-464.96 620.55,-464.96"/>
<polygon fill="none" stroke="#29235c" points="620.55,-464.96 620.55,-524.96 975.55,-524.96 975.55,-464.96 620.55,-464.96"/>
<text text-anchor="start" x="631.55" y="-485.16" font-family="Helvetica,sans-Serif" font-size="32.00" fill="#29235c">content &#160;&#160;&#160;</text>
<text text-anchor="start" x="873.89" y="-486.16" font-family="Helvetica,sans-Serif" font-style="italic" font-size="32.00" fill="#29235c">text</text>
<text text-anchor="start" x="925.46" y="-486.16" font-family="Helvetica,sans-Serif" font-size="32.00" fill="#29235c"> </text>
<text text-anchor="start" x="934.36" y="-486.16" font-family="Helvetica,sans-Serif" font-weight="bold" font-size="32.00" fill="#29235c">(!)</text>
<polygon fill="#e7e2dd" stroke="transparent" points="620.55,-404.96 620.55,-464.96 975.55,-464.96 975.55,-404.96 620.55,-404.96"/>
<polygon fill="none" stroke="#29235c" points="620.55,-404.96 620.55,-464.96 975.55,-464.96 975.55,-404.96 620.55,-404.96"/>
<text text-anchor="start" x="631.55" y="-425.16" font-family="Helvetica,sans-Serif" font-size="32.00" fill="#29235c">keywords &#160;&#160;&#160;</text>
<text text-anchor="start" x="912.98" y="-426.16" font-family="Helvetica,sans-Serif" font-style="italic" font-size="32.00" fill="#29235c">text</text>
<polygon fill="#e7e2dd" stroke="transparent" points="620.55,-344.96 620.55,-404.96 975.55,-404.96 975.55,-344.96 620.55,-344.96"/>
<polygon fill="none" stroke="#29235c" points="620.55,-344.96 620.55,-404.96 975.55,-404.96 975.55,-344.96 620.55,-344.96"/>
<text text-anchor="start" x="631.55" y="-365.16" font-family="Helvetica,sans-Serif" font-size="32.00" fill="#29235c">categories &#160;&#160;&#160;</text>
<text text-anchor="start" x="912.98" y="-366.16" font-family="Helvetica,sans-Serif" font-style="italic" font-size="32.00" fill="#29235c">text</text>
<polygon fill="#e7e2dd" stroke="transparent" points="620.55,-284.96 620.55,-344.96 975.55,-344.96 975.55,-284.96 620.55,-284.96"/>
<polygon fill="none" stroke="#29235c" points="620.55,-284.96 620.55,-344.96 975.55,-344.96 975.55,-284.96 620.55,-284.96"/>
<text text-anchor="start" x="631.55" y="-305.16" font-family="Helvetica,sans-Serif" font-size="32.00" fill="#29235c">is_draft &#160;&#160;&#160;</text>
<text text-anchor="start" x="850.72" y="-306.16" font-family="Helvetica,sans-Serif" font-style="italic" font-size="32.00" fill="#29235c">boolean</text>
<polygon fill="#e7e2dd" stroke="transparent" points="620.55,-224.96 620.55,-284.96 975.55,-284.96 975.55,-224.96 620.55,-224.96"/>
<polygon fill="none" stroke="#29235c" points="620.55,-224.96 620.55,-284.96 975.55,-284.96 975.55,-224.96 620.55,-224.96"/>
<text text-anchor="start" x="631.55" y="-245.16" font-family="Helvetica,sans-Serif" font-size="32.00" fill="#29235c">date &#160;&#160;&#160;</text>
<text text-anchor="start" x="777.9" y="-246.16" font-family="Helvetica,sans-Serif" font-style="italic" font-size="32.00" fill="#29235c">timestamp</text>
<text text-anchor="start" x="925.46" y="-246.16" font-family="Helvetica,sans-Serif" font-size="32.00" fill="#29235c"> </text>
<text text-anchor="start" x="934.36" y="-246.16" font-family="Helvetica,sans-Serif" font-weight="bold" font-size="32.00" fill="#29235c">(!)</text>
<polygon fill="#e7e2dd" stroke="transparent" points="620.55,-164.96 620.55,-224.96 975.55,-224.96 975.55,-164.96 620.55,-164.96"/>
<polygon fill="none" stroke="#29235c" points="620.55,-164.96 620.55,-224.96 975.55,-224.96 975.55,-164.96 620.55,-164.96"/>
<text text-anchor="start" x="631.18" y="-185.16" font-family="Helvetica,sans-Serif" font-size="32.00" fill="#29235c">created_at &#160;&#160;&#160;</text>
<text text-anchor="start" x="817.27" y="-186.16" font-family="Helvetica,sans-Serif" font-style="italic" font-size="32.00" fill="#29235c">timestamp</text>
<polygon fill="none" stroke="#29235c" stroke-width="2" points="619.05,-163.96 619.05,-885.96 976.05,-885.96 976.05,-163.96 619.05,-163.96"/>
</g>
<!-- posts&#45;&gt;categories -->
<!-- posts&#45;&gt;categories -->
<g id="edge2" class="edge">
<title>posts:e&#45;&gt;categories:w</title>
<path fill="none" stroke="#29235c" stroke-width="3" d="M976.55,-374.96C1177.34,-374.96 966.44,-780.73 1153.15,-794.6"/>
<polygon fill="#29235c" stroke="#29235c" stroke-width="3" points="1153.14,-798.1 1163.26,-794.96 1153.39,-791.1 1153.14,-798.1"/>
<text text-anchor="middle" x="1172.15" y="-804.56" font-family="Helvetica,sans-Serif" font-size="32.00" fill="#29235c">1</text>
<text text-anchor="middle" x="970.33" y="-384.56" font-family="Helvetica,sans-Serif" font-size="32.00" fill="#29235c">*</text>
</g>
<!-- comments -->
<g id="comments" class="node">
<title>comments</title>
<ellipse fill="none" stroke="black" stroke-width="0" cx="253.85" cy="-704.96" rx="253.7" ry="257.27"/>
<polygon fill="#1d71b8" stroke="transparent" points="76.85,-824.96 76.85,-884.96 431.85,-884.96 431.85,-824.96 76.85,-824.96"/>
<polygon fill="none" stroke="#29235c" points="76.85,-824.96 76.85,-884.96 431.85,-884.96 431.85,-824.96 76.85,-824.96"/>
<text text-anchor="start" x="118.32" y="-846.16" font-family="Helvetica,sans-Serif" font-weight="bold" font-size="32.00" fill="#ffffff"> &#160;&#160;&#160;&#160;&#160;&#160;comments &#160;&#160;&#160;&#160;&#160;&#160;</text>
<polygon fill="#e7e2dd" stroke="transparent" points="76.85,-764.96 76.85,-824.96 431.85,-824.96 431.85,-764.96 76.85,-764.96"/>
<polygon fill="none" stroke="#29235c" points="76.85,-764.96 76.85,-824.96 431.85,-824.96 431.85,-764.96 76.85,-764.96"/>
<text text-anchor="start" x="87.85" y="-786.16" font-family="Helvetica,sans-Serif" font-weight="bold" font-size="32.00" fill="#29235c">id</text>
<text text-anchor="start" x="112.74" y="-786.16" font-family="Helvetica,sans-Serif" font-size="32.00" fill="#29235c"> &#160;&#160;&#160;</text>
<text text-anchor="start" x="330.19" y="-786.16" font-family="Helvetica,sans-Serif" font-style="italic" font-size="32.00" fill="#29235c">text</text>
<text text-anchor="start" x="381.76" y="-786.16" font-family="Helvetica,sans-Serif" font-size="32.00" fill="#29235c"> </text>
<text text-anchor="start" x="390.65" y="-786.16" font-family="Helvetica,sans-Serif" font-weight="bold" font-size="32.00" fill="#29235c">(!)</text>
<polygon fill="#e7e2dd" stroke="transparent" points="76.85,-704.96 76.85,-764.96 431.85,-764.96 431.85,-704.96 76.85,-704.96"/>
<polygon fill="none" stroke="#29235c" points="76.85,-704.96 76.85,-764.96 431.85,-764.96 431.85,-704.96 76.85,-704.96"/>
<text text-anchor="start" x="87.85" y="-725.16" font-family="Helvetica,sans-Serif" font-size="32.00" fill="#29235c">name &#160;&#160;&#160;</text>
<text text-anchor="start" x="330.19" y="-726.16" font-family="Helvetica,sans-Serif" font-style="italic" font-size="32.00" fill="#29235c">text</text>
<text text-anchor="start" x="381.76" y="-726.16" font-family="Helvetica,sans-Serif" font-size="32.00" fill="#29235c"> </text>
<text text-anchor="start" x="390.65" y="-726.16" font-family="Helvetica,sans-Serif" font-weight="bold" font-size="32.00" fill="#29235c">(!)</text>
<polygon fill="#e7e2dd" stroke="transparent" points="76.85,-644.96 76.85,-704.96 431.85,-704.96 431.85,-644.96 76.85,-644.96"/>
<polygon fill="none" stroke="#29235c" points="76.85,-644.96 76.85,-704.96 431.85,-704.96 431.85,-644.96 76.85,-644.96"/>
<text text-anchor="start" x="87.85" y="-665.16" font-family="Helvetica,sans-Serif" font-size="32.00" fill="#29235c">content &#160;&#160;&#160;</text>
<text text-anchor="start" x="330.19" y="-666.16" font-family="Helvetica,sans-Serif" font-style="italic" font-size="32.00" fill="#29235c">text</text>
<text text-anchor="start" x="381.76" y="-666.16" font-family="Helvetica,sans-Serif" font-size="32.00" fill="#29235c"> </text>
<text text-anchor="start" x="390.65" y="-666.16" font-family="Helvetica,sans-Serif" font-weight="bold" font-size="32.00" fill="#29235c">(!)</text>
<polygon fill="#e7e2dd" stroke="transparent" points="76.85,-584.96 76.85,-644.96 431.85,-644.96 431.85,-584.96 76.85,-584.96"/>
<polygon fill="none" stroke="#29235c" points="76.85,-584.96 76.85,-644.96 431.85,-644.96 431.85,-584.96 76.85,-584.96"/>
<text text-anchor="start" x="87.85" y="-605.16" font-family="Helvetica,sans-Serif" font-size="32.00" fill="#29235c">post &#160;&#160;&#160;</text>
<text text-anchor="start" x="330.19" y="-606.16" font-family="Helvetica,sans-Serif" font-style="italic" font-size="32.00" fill="#29235c">text</text>
<text text-anchor="start" x="381.76" y="-606.16" font-family="Helvetica,sans-Serif" font-size="32.00" fill="#29235c"> </text>
<text text-anchor="start" x="390.65" y="-606.16" font-family="Helvetica,sans-Serif" font-weight="bold" font-size="32.00" fill="#29235c">(!)</text>
<polygon fill="#e7e2dd" stroke="transparent" points="76.85,-524.96 76.85,-584.96 431.85,-584.96 431.85,-524.96 76.85,-524.96"/>
<polygon fill="none" stroke="#29235c" points="76.85,-524.96 76.85,-584.96 431.85,-584.96 431.85,-524.96 76.85,-524.96"/>
<text text-anchor="start" x="87.48" y="-545.16" font-family="Helvetica,sans-Serif" font-size="32.00" fill="#29235c">created_at &#160;&#160;&#160;</text>
<text text-anchor="start" x="273.57" y="-546.16" font-family="Helvetica,sans-Serif" font-style="italic" font-size="32.00" fill="#29235c">timestamp</text>
<polygon fill="none" stroke="#29235c" stroke-width="2" points="75.35,-523.96 75.35,-885.96 432.35,-885.96 432.35,-523.96 75.35,-523.96"/>
</g>
<!-- comments&#45;&gt;posts -->
<!-- comments&#45;&gt;posts -->
<g id="edge4" class="edge">
<title>comments:e&#45;&gt;posts:w</title>
<path fill="none" stroke="#29235c" stroke-width="3" d="M432.85,-614.96C544.62,-614.96 506.8,-784.23 609.51,-794.48"/>
<polygon fill="#29235c" stroke="#29235c" stroke-width="3" points="609.4,-797.97 619.55,-794.96 609.73,-790.98 609.4,-797.97"/>
<text text-anchor="middle" x="610.66" y="-804.56" font-family="Helvetica,sans-Serif" font-size="32.00" fill="#29235c">1</text>
<text text-anchor="middle" x="423.96" y="-624.56" font-family="Helvetica,sans-Serif" font-size="32.00" fill="#29235c">1</text>
</g>
</g>
</svg>
