<?xml version="1.0" encoding="UTF-8" standalone="no"?>
<!DOCTYPE svg PUBLIC "-//W3C//DTD SVG 1.1//EN"
 "http://www.w3.org/Graphics/SVG/1.1/DTD/svg11.dtd">
<!-- Generated by graphviz version 2.47.0 (20210316.0004)
 -->
<!-- Title: dbml Pages: 1 -->
<svg width="1603pt" height="1140pt"
 viewBox="0.00 0.00 1603.11 1140.20" xmlns="http://www.w3.org/2000/svg" xmlns:xlink="http://www.w3.org/1999/xlink">
<g id="graph0" class="graph" transform="scale(1 1) rotate(0) translate(4 1136.2)">
<title>dbml</title>
<!-- users -->
<g id="users" class="node">
<title>users</title>
<ellipse fill="none" stroke="black" stroke-width="0" cx="797.55" cy="-917.24" rx="253.7" ry="214.92"/>
<polygon fill="#1d71b8" stroke="transparent" points="620.55,-1007.24 620.55,-1067.24 975.55,-1067.24 975.55,-1007.24 620.55,-1007.24"/>
<polygon fill="none" stroke="#29235c" points="620.55,-1007.24 620.55,-1067.24 975.55,-1067.24 975.55,-1007.24 620.55,-1007.24"/>
<text text-anchor="start" x="696.69" y="-1028.44" font-family="Helvetica,sans-Serif" font-weight="bold" font-size="32.00" fill="#ffffff"> &#160;&#160;&#160;&#160;&#160;&#160;users &#160;&#160;&#160;&#160;&#160;&#160;</text>
<polygon fill="#e7e2dd" stroke="transparent" points="620.55,-947.24 620.55,-1007.24 975.55,-1007.24 975.55,-947.24 620.55,-947.24"/>
<polygon fill="none" stroke="#29235c" points="620.55,-947.24 620.55,-1007.24 975.55,-1007.24 975.55,-947.24 620.55,-947.24"/>
<text text-anchor="start" x="631.55" y="-968.44" font-family="Helvetica,sans-Serif" font-weight="bold" font-size="32.00" fill="#29235c">id</text>
<text text-anchor="start" x="656.44" y="-968.44" font-family="Helvetica,sans-Serif" font-size="32.00" fill="#29235c"> &#160;&#160;&#160;</text>
<text text-anchor="start" x="873.89" y="-968.44" font-family="Helvetica,sans-Serif" font-style="italic" font-size="32.00" fill="#29235c">text</text>
<text text-anchor="start" x="925.46" y="-968.44" font-family="Helvetica,sans-Serif" font-size="32.00" fill="#29235c"> </text>
<text text-anchor="start" x="934.36" y="-968.44" font-family="Helvetica,sans-Serif" font-weight="bold" font-size="32.00" fill="#29235c">(!)</text>
<polygon fill="#e7e2dd" stroke="transparent" points="620.55,-887.24 620.55,-947.24 975.55,-947.24 975.55,-887.24 620.55,-887.24"/>
<polygon fill="none" stroke="#29235c" points="620.55,-887.24 620.55,-947.24 975.55,-947.24 975.55,-887.24 620.55,-887.24"/>
<text text-anchor="start" x="631.55" y="-907.44" font-family="Helvetica,sans-Serif" font-size="32.00" fill="#29235c">name &#160;&#160;&#160;</text>
<text text-anchor="start" x="912.98" y="-908.44" font-family="Helvetica,sans-Serif" font-style="italic" font-size="32.00" fill="#29235c">text</text>
<polygon fill="#e7e2dd" stroke="transparent" points="620.55,-827.24 620.55,-887.24 975.55,-887.24 975.55,-827.24 620.55,-827.24"/>
<polygon fill="none" stroke="#29235c" points="620.55,-827.24 620.55,-887.24 975.55,-887.24 975.55,-827.24 620.55,-827.24"/>
<text text-anchor="start" x="631.55" y="-847.44" font-family="Helvetica,sans-Serif" font-size="32.00" fill="#29235c">avatar &#160;&#160;&#160;</text>
<text text-anchor="start" x="912.98" y="-848.44" font-family="Helvetica,sans-Serif" font-style="italic" font-size="32.00" fill="#29235c">text</text>
<polygon fill="#e7e2dd" stroke="transparent" points="620.55,-767.24 620.55,-827.24 975.55,-827.24 975.55,-767.24 620.55,-767.24"/>
<polygon fill="none" stroke="#29235c" points="620.55,-767.24 620.55,-827.24 975.55,-827.24 975.55,-767.24 620.55,-767.24"/>
<text text-anchor="start" x="631.18" y="-787.44" font-family="Helvetica,sans-Serif" font-size="32.00" fill="#29235c">created_at &#160;&#160;&#160;</text>
<text text-anchor="start" x="817.27" y="-788.44" font-family="Helvetica,sans-Serif" font-style="italic" font-size="32.00" fill="#29235c">timestamp</text>
<polygon fill="none" stroke="#29235c" stroke-width="2" points="619.05,-766.24 619.05,-1068.24 976.05,-1068.24 976.05,-766.24 619.05,-766.24"/>
</g>
<!-- purchases -->
<g id="purchases" class="node">
<title>purchases</title>
<ellipse fill="none" stroke="black" stroke-width="0" cx="253.85" cy="-917.24" rx="253.7" ry="214.92"/>
<polygon fill="#1d71b8" stroke="transparent" points="76.85,-1007.24 76.85,-1067.24 431.85,-1067.24 431.85,-1007.24 76.85,-1007.24"/>
<polygon fill="none" stroke="#29235c" points="76.85,-1007.24 76.85,-1067.24 431.85,-1067.24 431.85,-1007.24 76.85,-1007.24"/>
<text text-anchor="start" x="118.3" y="-1028.44" font-family="Helvetica,sans-Serif" font-weight="bold" font-size="32.00" fill="#ffffff"> &#160;&#160;&#160;&#160;&#160;&#160;purchases &#160;&#160;&#160;&#160;&#160;&#160;</text>
<polygon fill="#e7e2dd" stroke="transparent" points="76.85,-947.24 76.85,-1007.24 431.85,-1007.24 431.85,-947.24 76.85,-947.24"/>
<polygon fill="none" stroke="#29235c" points="76.85,-947.24 76.85,-1007.24 431.85,-1007.24 431.85,-947.24 76.85,-947.24"/>
<text text-anchor="start" x="87.85" y="-968.44" font-family="Helvetica,sans-Serif" font-weight="bold" font-size="32.00" fill="#29235c">id</text>
<text text-anchor="start" x="112.74" y="-968.44" font-family="Helvetica,sans-Serif" font-size="32.00" fill="#29235c"> &#160;&#160;&#160;</text>
<text text-anchor="start" x="330.19" y="-968.44" font-family="Helvetica,sans-Serif" font-style="italic" font-size="32.00" fill="#29235c">text</text>
<text text-anchor="start" x="381.76" y="-968.44" font-family="Helvetica,sans-Serif" font-size="32.00" fill="#29235c"> </text>
<text text-anchor="start" x="390.65" y="-968.44" font-family="Helvetica,sans-Serif" font-weight="bold" font-size="32.00" fill="#29235c">(!)</text>
<polygon fill="#e7e2dd" stroke="transparent" points="76.85,-887.24 76.85,-947.24 431.85,-947.24 431.85,-887.24 76.85,-887.24"/>
<polygon fill="none" stroke="#29235c" points="76.85,-887.24 76.85,-947.24 431.85,-947.24 431.85,-887.24 76.85,-887.24"/>
<text text-anchor="start" x="87.85" y="-907.44" font-family="Helvetica,sans-Serif" font-size="32.00" fill="#29235c">course &#160;&#160;&#160;</text>
<text text-anchor="start" x="330.19" y="-908.44" font-family="Helvetica,sans-Serif" font-style="italic" font-size="32.00" fill="#29235c">text</text>
<text text-anchor="start" x="381.76" y="-908.44" font-family="Helvetica,sans-Serif" font-size="32.00" fill="#29235c"> </text>
<text text-anchor="start" x="390.65" y="-908.44" font-family="Helvetica,sans-Serif" font-weight="bold" font-size="32.00" fill="#29235c">(!)</text>
<polygon fill="#e7e2dd" stroke="transparent" points="76.85,-827.24 76.85,-887.24 431.85,-887.24 431.85,-827.24 76.85,-827.24"/>
<polygon fill="none" stroke="#29235c" points="76.85,-827.24 76.85,-887.24 431.85,-887.24 431.85,-827.24 76.85,-827.24"/>
<text text-anchor="start" x="87.85" y="-847.44" font-family="Helvetica,sans-Serif" font-size="32.00" fill="#29235c">user &#160;&#160;&#160;</text>
<text text-anchor="start" x="330.19" y="-848.44" font-family="Helvetica,sans-Serif" font-style="italic" font-size="32.00" fill="#29235c">text</text>
<text text-anchor="start" x="381.76" y="-848.44" font-family="Helvetica,sans-Serif" font-size="32.00" fill="#29235c"> </text>
<text text-anchor="start" x="390.65" y="-848.44" font-family="Helvetica,sans-Serif" font-weight="bold" font-size="32.00" fill="#29235c">(!)</text>
<polygon fill="#e7e2dd" stroke="transparent" points="76.85,-767.24 76.85,-827.24 431.85,-827.24 431.85,-767.24 76.85,-767.24"/>
<polygon fill="none" stroke="#29235c" points="76.85,-767.24 76.85,-827.24 431.85,-827.24 431.85,-767.24 76.85,-767.24"/>
<text text-anchor="start" x="87.48" y="-787.44" font-family="Helvetica,sans-Serif" font-size="32.00" fill="#29235c">created_at &#160;&#160;&#160;</text>
<text text-anchor="start" x="273.57" y="-788.44" font-family="Helvetica,sans-Serif" font-style="italic" font-size="32.00" fill="#29235c">timestamp</text>
<polygon fill="none" stroke="#29235c" stroke-width="2" points="75.35,-766.24 75.35,-1068.24 432.35,-1068.24 432.35,-766.24 75.35,-766.24"/>
</g>
<!-- purchases&#45;&gt;users -->
<!-- purchases&#45;&gt;users -->
<g id="edge4" class="edge">
<title>purchases:e&#45;&gt;users:w</title>
<path fill="none" stroke="#29235c" stroke-width="3" d="M432.85,-857.24C528.02,-857.24 521.52,-968.95 609.55,-976.81"/>
<polygon fill="#29235c" stroke="#29235c" stroke-width="3" points="609.41,-980.3 619.55,-977.24 609.72,-973.31 609.41,-980.3"/>
<text text-anchor="middle" x="610.66" y="-986.84" font-family="Helvetica,sans-Serif" font-size="32.00" fill="#29235c">1</text>
<text text-anchor="middle" x="423.96" y="-866.84" font-family="Helvetica,sans-Serif" font-size="32.00" fill="#29235c">1</text>
</g>
<!-- courses -->
<g id="courses" class="node">
<title>courses</title>
<ellipse fill="none" stroke="black" stroke-width="0" cx="797.55" cy="-342.24" rx="253.7" ry="342.48"/>
<polygon fill="#1d71b8" stroke="transparent" points="620.55,-522.24 620.55,-582.24 975.55,-582.24 975.55,-522.24 620.55,-522.24"/>
<polygon fill="none" stroke="#29235c" points="620.55,-522.24 620.55,-582.24 975.55,-582.24 975.55,-522.24 620.55,-522.24"/>
<text text-anchor="start" x="679.79" y="-543.44" font-family="Helvetica,sans-Serif" font-weight="bold" font-size="32.00" fill="#ffffff"> &#160;&#160;&#160;&#160;&#160;&#160;courses &#160;&#160;&#160;&#160;&#160;&#160;</text>
<polygon fill="#e7e2dd" stroke="transparent" points="620.55,-462.24 620.55,-522.24 975.55,-522.24 975.55,-462.24 620.55,-462.24"/>
<polygon fill="none" stroke="#29235c" points="620.55,-462.24 620.55,-522.24 975.55,-522.24 975.55,-462.24 620.55,-462.24"/>
<text text-anchor="start" x="631.55" y="-483.44" font-family="Helvetica,sans-Serif" font-weight="bold" font-size="32.00" fill="#29235c">id</text>
<text text-anchor="start" x="656.44" y="-483.44" font-family="Helvetica,sans-Serif" font-size="32.00" fill="#29235c"> &#160;&#160;&#160;</text>
<text text-anchor="start" x="873.89" y="-483.44" font-family="Helvetica,sans-Serif" font-style="italic" font-size="32.00" fill="#29235c">text</text>
<text text-anchor="start" x="925.46" y="-483.44" font-family="Helvetica,sans-Serif" font-size="32.00" fill="#29235c"> </text>
<text text-anchor="start" x="934.36" y="-483.44" font-family="Helvetica,sans-Serif" font-weight="bold" font-size="32.00" fill="#29235c">(!)</text>
<polygon fill="#e7e2dd" stroke="transparent" points="620.55,-402.24 620.55,-462.24 975.55,-462.24 975.55,-402.24 620.55,-402.24"/>
<polygon fill="none" stroke="#29235c" points="620.55,-402.24 620.55,-462.24 975.55,-462.24 975.55,-402.24 620.55,-402.24"/>
<text text-anchor="start" x="631.55" y="-422.44" font-family="Helvetica,sans-Serif" font-size="32.00" fill="#29235c">title &#160;&#160;&#160;</text>
<text text-anchor="start" x="873.89" y="-423.44" font-family="Helvetica,sans-Serif" font-style="italic" font-size="32.00" fill="#29235c">text</text>
<text text-anchor="start" x="925.46" y="-423.44" font-family="Helvetica,sans-Serif" font-size="32.00" fill="#29235c"> </text>
<text text-anchor="start" x="934.36" y="-423.44" font-family="Helvetica,sans-Serif" font-weight="bold" font-size="32.00" fill="#29235c">(!)</text>
<polygon fill="#e7e2dd" stroke="transparent" points="620.55,-342.24 620.55,-402.24 975.55,-402.24 975.55,-342.24 620.55,-342.24"/>
<polygon fill="none" stroke="#29235c" points="620.55,-342.24 620.55,-402.24 975.55,-402.24 975.55,-342.24 620.55,-342.24"/>
<text text-anchor="start" x="631.55" y="-362.44" font-family="Helvetica,sans-Serif" font-size="32.00" fill="#29235c">description &#160;&#160;&#160;</text>
<text text-anchor="start" x="873.89" y="-363.44" font-family="Helvetica,sans-Serif" font-style="italic" font-size="32.00" fill="#29235c">text</text>
<text text-anchor="start" x="925.46" y="-363.44" font-family="Helvetica,sans-Serif" font-size="32.00" fill="#29235c"> </text>
<text text-anchor="start" x="934.36" y="-363.44" font-family="Helvetica,sans-Serif" font-weight="bold" font-size="32.00" fill="#29235c">(!)</text>
<polygon fill="#e7e2dd" stroke="transparent" points="620.55,-282.24 620.55,-342.24 975.55,-342.24 975.55,-282.24 620.55,-282.24"/>
<polygon fill="none" stroke="#29235c" points="620.55,-282.24 620.55,-342.24 975.55,-342.24 975.55,-282.24 620.55,-282.24"/>
<text text-anchor="start" x="631.55" y="-302.44" font-family="Helvetica,sans-Serif" font-size="32.00" fill="#29235c">price &#160;&#160;&#160;</text>
<text text-anchor="start" x="873.89" y="-303.44" font-family="Helvetica,sans-Serif" font-style="italic" font-size="32.00" fill="#29235c">text</text>
<text text-anchor="start" x="925.46" y="-303.44" font-family="Helvetica,sans-Serif" font-size="32.00" fill="#29235c"> </text>
<text text-anchor="start" x="934.36" y="-303.44" font-family="Helvetica,sans-Serif" font-weight="bold" font-size="32.00" fill="#29235c">(!)</text>
<polygon fill="#e7e2dd" stroke="transparent" points="620.55,-222.24 620.55,-282.24 975.55,-282.24 975.55,-222.24 620.55,-222.24"/>
<polygon fill="none" stroke="#29235c" points="620.55,-222.24 620.55,-282.24 975.55,-282.24 975.55,-222.24 620.55,-222.24"/>
<text text-anchor="start" x="631.55" y="-242.44" font-family="Helvetica,sans-Serif" font-size="32.00" fill="#29235c">category &#160;&#160;&#160;</text>
<text text-anchor="start" x="873.89" y="-243.44" font-family="Helvetica,sans-Serif" font-style="italic" font-size="32.00" fill="#29235c">text</text>
<text text-anchor="start" x="925.46" y="-243.44" font-family="Helvetica,sans-Serif" font-size="32.00" fill="#29235c"> </text>
<text text-anchor="start" x="934.36" y="-243.44" font-family="Helvetica,sans-Serif" font-weight="bold" font-size="32.00" fill="#29235c">(!)</text>
<polygon fill="#e7e2dd" stroke="transparent" points="620.55,-162.24 620.55,-222.24 975.55,-222.24 975.55,-162.24 620.55,-162.24"/>
<polygon fill="none" stroke="#29235c" points="620.55,-162.24 620.55,-222.24 975.55,-222.24 975.55,-162.24 620.55,-162.24"/>
<text text-anchor="start" x="631.55" y="-182.44" font-family="Helvetica,sans-Serif" font-size="32.00" fill="#29235c">image &#160;&#160;&#160;</text>
<text text-anchor="start" x="912.98" y="-183.44" font-family="Helvetica,sans-Serif" font-style="italic" font-size="32.00" fill="#29235c">text</text>
<polygon fill="#e7e2dd" stroke="transparent" points="620.55,-102.24 620.55,-162.24 975.55,-162.24 975.55,-102.24 620.55,-102.24"/>
<polygon fill="none" stroke="#29235c" points="620.55,-102.24 620.55,-162.24 975.55,-162.24 975.55,-102.24 620.55,-102.24"/>
<text text-anchor="start" x="631.18" y="-122.44" font-family="Helvetica,sans-Serif" font-size="32.00" fill="#29235c">created_at &#160;&#160;&#160;</text>
<text text-anchor="start" x="817.27" y="-123.44" font-family="Helvetica,sans-Serif" font-style="italic" font-size="32.00" fill="#29235c">timestamp</text>
<polygon fill="none" stroke="#29235c" stroke-width="2" points="619.05,-101.24 619.05,-583.24 976.05,-583.24 976.05,-101.24 619.05,-101.24"/>
</g>
<!-- purchases&#45;&gt;courses -->
<!-- purchases&#45;&gt;courses -->
<g id="edge2" class="edge">
<title>purchases:e&#45;&gt;courses:w</title>
<path fill="none" stroke="#29235c" stroke-width="3" d="M432.85,-917.24C635.64,-917.24 420.84,-506.64 609.35,-492.61"/>
<polygon fill="#29235c" stroke="#29235c" stroke-width="3" points="609.69,-496.1 619.55,-492.24 609.43,-489.1 609.69,-496.1"/>
<text text-anchor="middle" x="610.66" y="-463.44" font-family="Helvetica,sans-Serif" font-size="32.00" fill="#29235c">1</text>
<text text-anchor="middle" x="423.96" y="-926.84" font-family="Helvetica,sans-Serif" font-size="32.00" fill="#29235c">1</text>
</g>
<!-- lessons -->
<g id="lessons" class="node">
<title>lessons</title>
<ellipse fill="none" stroke="black" stroke-width="0" cx="253.85" cy="-342.24" rx="253.7" ry="342.48"/>
<polygon fill="#1d71b8" stroke="transparent" points="76.85,-522.24 76.85,-582.24 431.85,-582.24 431.85,-522.24 76.85,-522.24"/>
<polygon fill="none" stroke="#29235c" points="76.85,-522.24 76.85,-582.24 431.85,-582.24 431.85,-522.24 76.85,-522.24"/>
<text text-anchor="start" x="137.87" y="-543.44" font-family="Helvetica,sans-Serif" font-weight="bold" font-size="32.00" fill="#ffffff"> &#160;&#160;&#160;&#160;&#160;&#160;lessons &#160;&#160;&#160;&#160;&#160;&#160;</text>
<polygon fill="#e7e2dd" stroke="transparent" points="76.85,-462.24 76.85,-522.24 431.85,-522.24 431.85,-462.24 76.85,-462.24"/>
<polygon fill="none" stroke="#29235c" points="76.85,-462.24 76.85,-522.24 431.85,-522.24 431.85,-462.24 76.85,-462.24"/>
<text text-anchor="start" x="87.85" y="-483.44" font-family="Helvetica,sans-Serif" font-weight="bold" font-size="32.00" fill="#29235c">id</text>
<text text-anchor="start" x="112.74" y="-483.44" font-family="Helvetica,sans-Serif" font-size="32.00" fill="#29235c"> &#160;&#160;&#160;</text>
<text text-anchor="start" x="330.19" y="-483.44" font-family="Helvetica,sans-Serif" font-style="italic" font-size="32.00" fill="#29235c">text</text>
<text text-anchor="start" x="381.76" y="-483.44" font-family="Helvetica,sans-Serif" font-size="32.00" fill="#29235c"> </text>
<text text-anchor="start" x="390.65" y="-483.44" font-family="Helvetica,sans-Serif" font-weight="bold" font-size="32.00" fill="#29235c">(!)</text>
<polygon fill="#e7e2dd" stroke="transparent" points="76.85,-402.24 76.85,-462.24 431.85,-462.24 431.85,-402.24 76.85,-402.24"/>
<polygon fill="none" stroke="#29235c" points="76.85,-402.24 76.85,-462.24 431.85,-462.24 431.85,-402.24 76.85,-402.24"/>
<text text-anchor="start" x="87.85" y="-422.44" font-family="Helvetica,sans-Serif" font-size="32.00" fill="#29235c">image &#160;&#160;&#160;</text>
<text text-anchor="start" x="369.28" y="-423.44" font-family="Helvetica,sans-Serif" font-style="italic" font-size="32.00" fill="#29235c">text</text>
<polygon fill="#e7e2dd" stroke="transparent" points="76.85,-342.24 76.85,-402.24 431.85,-402.24 431.85,-342.24 76.85,-342.24"/>
<polygon fill="none" stroke="#29235c" points="76.85,-342.24 76.85,-402.24 431.85,-402.24 431.85,-342.24 76.85,-342.24"/>
<text text-anchor="start" x="87.85" y="-362.44" font-family="Helvetica,sans-Serif" font-size="32.00" fill="#29235c">title &#160;&#160;&#160;</text>
<text text-anchor="start" x="330.19" y="-363.44" font-family="Helvetica,sans-Serif" font-style="italic" font-size="32.00" fill="#29235c">text</text>
<text text-anchor="start" x="381.76" y="-363.44" font-family="Helvetica,sans-Serif" font-size="32.00" fill="#29235c"> </text>
<text text-anchor="start" x="390.65" y="-363.44" font-family="Helvetica,sans-Serif" font-weight="bold" font-size="32.00" fill="#29235c">(!)</text>
<polygon fill="#e7e2dd" stroke="transparent" points="76.85,-282.24 76.85,-342.24 431.85,-342.24 431.85,-282.24 76.85,-282.24"/>
<polygon fill="none" stroke="#29235c" points="76.85,-282.24 76.85,-342.24 431.85,-342.24 431.85,-282.24 76.85,-282.24"/>
<text text-anchor="start" x="87.85" y="-302.44" font-family="Helvetica,sans-Serif" font-size="32.00" fill="#29235c">content &#160;&#160;&#160;</text>
<text text-anchor="start" x="330.19" y="-303.44" font-family="Helvetica,sans-Serif" font-style="italic" font-size="32.00" fill="#29235c">text</text>
<text text-anchor="start" x="381.76" y="-303.44" font-family="Helvetica,sans-Serif" font-size="32.00" fill="#29235c"> </text>
<text text-anchor="start" x="390.65" y="-303.44" font-family="Helvetica,sans-Serif" font-weight="bold" font-size="32.00" fill="#29235c">(!)</text>
<polygon fill="#e7e2dd" stroke="transparent" points="76.85,-222.24 76.85,-282.24 431.85,-282.24 431.85,-222.24 76.85,-222.24"/>
<polygon fill="none" stroke="#29235c" points="76.85,-222.24 76.85,-282.24 431.85,-282.24 431.85,-222.24 76.85,-222.24"/>
<text text-anchor="start" x="87.85" y="-242.44" font-family="Helvetica,sans-Serif" font-size="32.00" fill="#29235c">order &#160;&#160;&#160;</text>
<text text-anchor="start" x="387.07" y="-243.44" font-family="Helvetica,sans-Serif" font-style="italic" font-size="32.00" fill="#29235c">int</text>
<polygon fill="#e7e2dd" stroke="transparent" points="76.85,-162.24 76.85,-222.24 431.85,-222.24 431.85,-162.24 76.85,-162.24"/>
<polygon fill="none" stroke="#29235c" points="76.85,-162.24 76.85,-222.24 431.85,-222.24 431.85,-162.24 76.85,-162.24"/>
<text text-anchor="start" x="87.85" y="-182.44" font-family="Helvetica,sans-Serif" font-size="32.00" fill="#29235c">course &#160;&#160;&#160;</text>
<text text-anchor="start" x="330.19" y="-183.44" font-family="Helvetica,sans-Serif" font-style="italic" font-size="32.00" fill="#29235c">text</text>
<text text-anchor="start" x="381.76" y="-183.44" font-family="Helvetica,sans-Serif" font-size="32.00" fill="#29235c"> </text>
<text text-anchor="start" x="390.65" y="-183.44" font-family="Helvetica,sans-Serif" font-weight="bold" font-size="32.00" fill="#29235c">(!)</text>
<polygon fill="#e7e2dd" stroke="transparent" points="76.85,-102.24 76.85,-162.24 431.85,-162.24 431.85,-102.24 76.85,-102.24"/>
<polygon fill="none" stroke="#29235c" points="76.85,-102.24 76.85,-162.24 431.85,-162.24 431.85,-102.24 76.85,-102.24"/>
<text text-anchor="start" x="87.48" y="-122.44" font-family="Helvetica,sans-Serif" font-size="32.00" fill="#29235c">created_at &#160;&#160;&#160;</text>
<text text-anchor="start" x="273.57" y="-123.44" font-family="Helvetica,sans-Serif" font-style="italic" font-size="32.00" fill="#29235c">timestamp</text>
<polygon fill="none" stroke="#29235c" stroke-width="2" points="75.35,-101.24 75.35,-583.24 432.35,-583.24 432.35,-101.24 75.35,-101.24"/>
</g>
<!-- lessons&#45;&gt;courses -->
<!-- lessons&#45;&gt;courses -->
<g id="edge6" class="edge">
<title>lessons:e&#45;&gt;courses:w</title>
<path fill="none" stroke="#29235c" stroke-width="3" d="M432.85,-192.24C586.37,-192.24 468.09,-478.91 609.4,-491.79"/>
<polygon fill="#29235c" stroke="#29235c" stroke-width="3" points="609.41,-495.3 619.55,-492.24 609.72,-488.3 609.41,-495.3"/>
<text text-anchor="middle" x="628.45" y="-463.44" font-family="Helvetica,sans-Serif" font-size="32.00" fill="#29235c">1</text>
<text text-anchor="middle" x="423.96" y="-163.44" font-family="Helvetica,sans-Serif" font-size="32.00" fill="#29235c">1</text>
</g>
<!-- category -->
<g id="category" class="node">
<title>category</title>
<ellipse fill="none" stroke="black" stroke-width="0" cx="1341.26" cy="-462.24" rx="253.7" ry="172.57"/>
<polygon fill="#1d71b8" stroke="transparent" points="1164.26,-522.24 1164.26,-582.24 1519.26,-582.24 1519.26,-522.24 1164.26,-522.24"/>
<polygon fill="none" stroke="#29235c" points="1164.26,-522.24 1164.26,-582.24 1519.26,-582.24 1519.26,-522.24 1164.26,-522.24"/>
<text text-anchor="start" x="1218.16" y="-543.44" font-family="Helvetica,sans-Serif" font-weight="bold" font-size="32.00" fill="#ffffff"> &#160;&#160;&#160;&#160;&#160;&#160;category &#160;&#160;&#160;&#160;&#160;&#160;</text>
<polygon fill="#e7e2dd" stroke="transparent" points="1164.26,-462.24 1164.26,-522.24 1519.26,-522.24 1519.26,-462.24 1164.26,-462.24"/>
<polygon fill="none" stroke="#29235c" points="1164.26,-462.24 1164.26,-522.24 1519.26,-522.24 1519.26,-462.24 1164.26,-462.24"/>
<text text-anchor="start" x="1175.26" y="-483.44" font-family="Helvetica,sans-Serif" font-weight="bold" font-size="32.00" fill="#29235c">id</text>
<text text-anchor="start" x="1200.15" y="-483.44" font-family="Helvetica,sans-Serif" font-size="32.00" fill="#29235c"> &#160;&#160;&#160;</text>
<text text-anchor="start" x="1417.59" y="-483.44" font-family="Helvetica,sans-Serif" font-style="italic" font-size="32.00" fill="#29235c">text</text>
<text text-anchor="start" x="1469.17" y="-483.44" font-family="Helvetica,sans-Serif" font-size="32.00" fill="#29235c"> </text>
<text text-anchor="start" x="1478.06" y="-483.44" font-family="Helvetica,sans-Serif" font-weight="bold" font-size="32.00" fill="#29235c">(!)</text>
<polygon fill="#e7e2dd" stroke="transparent" points="1164.26,-402.24 1164.26,-462.24 1519.26,-462.24 1519.26,-402.24 1164.26,-402.24"/>
<polygon fill="none" stroke="#29235c" points="1164.26,-402.24 1164.26,-462.24 1519.26,-462.24 1519.26,-402.24 1164.26,-402.24"/>
<text text-anchor="start" x="1175.26" y="-422.44" font-family="Helvetica,sans-Serif" font-size="32.00" fill="#29235c">name &#160;&#160;&#160;</text>
<text text-anchor="start" x="1417.59" y="-423.44" font-family="Helvetica,sans-Serif" font-style="italic" font-size="32.00" fill="#29235c">text</text>
<text text-anchor="start" x="1469.17" y="-423.44" font-family="Helvetica,sans-Serif" font-size="32.00" fill="#29235c"> </text>
<text text-anchor="start" x="1478.06" y="-423.44" font-family="Helvetica,sans-Serif" font-weight="bold" font-size="32.00" fill="#29235c">(!)</text>
<polygon fill="#e7e2dd" stroke="transparent" points="1164.26,-342.24 1164.26,-402.24 1519.26,-402.24 1519.26,-342.24 1164.26,-342.24"/>
<polygon fill="none" stroke="#29235c" points="1164.26,-342.24 1164.26,-402.24 1519.26,-402.24 1519.26,-342.24 1164.26,-342.24"/>
<text text-anchor="start" x="1174.89" y="-362.44" font-family="Helvetica,sans-Serif" font-size="32.00" fill="#29235c">created_at &#160;&#160;&#160;</text>
<text text-anchor="start" x="1360.98" y="-363.44" font-family="Helvetica,sans-Serif" font-style="italic" font-size="32.00" fill="#29235c">timestamp</text>
<polygon fill="none" stroke="#29235c" stroke-width="2" points="1162.76,-341.24 1162.76,-583.24 1519.76,-583.24 1519.76,-341.24 1162.76,-341.24"/>
</g>
<!-- courses&#45;&gt;category -->
<!-- courses&#45;&gt;category -->
<g id="edge8" class="edge">
<title>courses:e&#45;&gt;category:w</title>
<path fill="none" stroke="#29235c" stroke-width="3" d="M976.55,-252.24C1108.13,-252.24 1032.37,-479.75 1153.01,-491.75"/>
<polygon fill="#29235c" stroke="#29235c" stroke-width="3" points="1153.1,-495.26 1163.26,-492.24 1153.44,-488.26 1153.1,-495.26"/>
<text text-anchor="middle" x="1172.15" y="-463.44" font-family="Helvetica,sans-Serif" font-size="32.00" fill="#29235c">1</text>
<text text-anchor="middle" x="967.66" y="-223.44" font-family="Helvetica,sans-Serif" font-size="32.00" fill="#29235c">1</text>
</g>
</g>
</svg>
